<svg version="1.1" xmlns="http://www.w3.org/2000/svg" xmlns:xlink="http://www.w3.org/1999/xlink" width="716.49951" height="709.82324" viewBox="0,0,716.49951,709.82324"><defs><radialGradient cx="239.99984" cy="179.99989" r="129.14806" gradientUnits="userSpaceOnUse" id="color-1"><stop offset="0" stop-color="#fff700"/><stop offset="1" stop-color="#fff700" stop-opacity="0"/></radialGradient></defs><g transform="translate(118.24975,174.91162)"><g data-paper-data="{&quot;isPaintingLayer&quot;:true}" fill-rule="nonzero" stroke-linejoin="miter" stroke-miterlimit="10" stroke-dasharray="" stroke-dashoffset="0" style="mix-blend-mode: normal"><path d="M110.86068,178.49516c0.83119,-71.32156 59.32241,-128.46562 130.64412,-127.63443c71.32156,0.83119 128.46576,59.32241 127.63452,130.64412c-0.83119,71.32156 -59.32241,128.46562 -130.64412,127.63443c-71.32156,-0.83119 -128.46576,-59.32241 -127.63452,-130.64412z" fill="url(#color-1)" stroke="none" stroke-width="0" stroke-linecap="butt"/><path d="M172.55952,180.41021c0,-37.30559 30.24214,-67.54772 67.54772,-67.54772c37.30559,0 67.54772,30.24214 67.54772,67.54772c0,37.30559 -30.24214,67.54772 -67.54772,67.54772c-37.30559,0 -67.54772,-30.24214 -67.54772,-67.54772z" fill="#fff300" stroke="#bdb700" stroke-width="4" stroke-linecap="butt"/><g stroke="#000000" stroke-width="2" stroke-linecap="butt"><path d="M191.88493,180.12372c0,-12.45796 10.09918,-22.55714 22.55714,-22.55714c12.45796,0 22.55714,10.09918 22.55714,22.55714c0,12.45796 -10.09918,22.55714 -22.55714,22.55714c-12.45796,0 -22.55714,-10.09918 -22.55714,-22.55714z" fill="#ffffff"/><path d="M216.43276,180.56477c0,-5.24959 4.25562,-9.50522 9.50522,-9.50522c5.24959,0 9.50519,4.25563 9.50519,9.50522c0,5.24959 -4.25562,9.5052 -9.50519,9.5052c-5.24959,0 -9.50522,-4.25563 -9.50522,-9.50519z" data-paper-data="{&quot;origPos&quot;:[&quot;Point&quot;,282.1615,254.92821]}" fill="#000000"/></g><path d="M222.08225,209.74858c0,0 -6.3553,2.79878 -12.05638,2.79878c-5.48587,0 -10.33405,-8.61167 -10.33405,-8.61167" data-paper-data="{&quot;index&quot;:null}" fill="none" stroke="#000000" stroke-width="2" stroke-linecap="round"/><g data-paper-data="{&quot;index&quot;:null}" stroke="#000000" stroke-width="2" stroke-linecap="butt"><path d="M265.55791,202.43342c-12.45796,0 -22.55714,-10.09918 -22.55714,-22.55714c0,-12.45796 10.09917,-22.55714 22.55714,-22.55714c12.45796,0 22.55714,10.09918 22.55714,22.55714c0,12.45796 -10.09918,22.55714 -22.55714,22.55714z" fill="#ffffff"/><path d="M254.06202,189.82252c-5.24957,0 -9.50519,-4.25561 -9.50519,-9.50519c0,-5.24959 4.2556,-9.50522 9.5052,-9.50522c5.24959,0 9.50521,4.25563 9.50521,9.50522c0,5.24957 -4.25562,9.5052 -9.50521,9.5052z" data-paper-data="{&quot;origPos&quot;:[&quot;Point&quot;,282.1615,254.92821]}" fill="#000000"/></g><path d="M334.91041,180c0,51.91477 -42.49284,94 -94.91041,94c-52.41757,0 -94.91041,-42.08523 -94.91041,-94c0,-51.91477 42.49284,-94 94.91041,-94c52.41757,0 94.91041,42.08523 94.91041,94z" fill="none" stroke="#ffffff" stroke-width="4" stroke-linecap="butt"/><g stroke-width="1"><g stroke="#727373" stroke-linecap="butt"><path d="M231.25,271.25c0,-4.69442 3.80558,-8.5 8.5,-8.5c4.69442,0 8.5,3.80558 8.5,8.5c0,4.69442 -3.80558,8.5 -8.5,8.5c-4.69442,0 -8.5,-3.80558 -8.5,-8.5z" fill="#ababab"/><path d="M235.2875,265.0984c0,-0.24074 0.19516,-0.43589 0.4359,-0.43589c0.24074,0 0.4359,0.19515 0.4359,0.43589c0,0.24074 -0.19516,0.4359 -0.4359,0.4359c-0.24074,0 -0.4359,-0.19516 -0.4359,-0.4359z" fill="#ffffff"/><path d="M234.00705,267.11443c0,-0.24074 0.19516,-0.4359 0.4359,-0.4359c0.24074,0 0.4359,0.19516 0.4359,0.4359c0,0.24074 -0.19516,0.4359 -0.4359,0.4359c-0.24074,0 -0.4359,-0.19515 -0.4359,-0.4359z" fill="#ffffff"/><path d="M234.27949,270.54712c0,-0.24074 0.19516,-0.4359 0.4359,-0.4359c0.24074,0 0.4359,0.19515 0.4359,0.4359c0,0.24074 -0.19516,0.4359 -0.4359,0.4359c-0.24074,0 -0.4359,-0.19516 -0.4359,-0.4359z" fill="#ffffff"/><path d="M238.25705,271.9093c0,-0.24074 0.19516,-0.4359 0.4359,-0.4359c0.24074,0 0.4359,0.19516 0.4359,0.4359c0,0.24074 -0.19516,0.4359 -0.4359,0.4359c-0.24074,0 -0.4359,-0.19515 -0.4359,-0.4359z" fill="#ffffff"/><path d="M238.36603,268.69455c0,-0.24074 0.19516,-0.4359 0.4359,-0.4359c0.24074,0 0.43589,0.19515 0.43589,0.4359c0,0.24074 -0.19515,0.4359 -0.43589,0.4359c-0.24074,0 -0.4359,-0.19516 -0.4359,-0.4359z" fill="#ffffff"/><path d="M239.15609,264.93494c0,-0.24074 0.19515,-0.4359 0.43589,-0.4359c0.24074,0 0.4359,0.19515 0.4359,0.4359c0,0.24074 -0.19516,0.4359 -0.4359,0.4359c-0.24074,0 -0.43589,-0.19516 -0.43589,-0.4359z" fill="#ffffff"/><path d="M244.85,268.64007c0,-0.24074 0.19516,-0.4359 0.4359,-0.4359c0.24074,0 0.4359,0.19516 0.4359,0.4359c0,0.24074 -0.19516,0.4359 -0.4359,0.4359c-0.24074,0 -0.4359,-0.19515 -0.4359,-0.4359z" fill="#ffffff"/><path d="M235.75064,264.17212c0,-0.00384 0.00005,-0.00767 0.00015,-0.01148l-0.00286,-0.01289l0.00373,-0.00559c0.01017,-0.14974 0.09595,-0.27873 0.21947,-0.34908l0.18817,-0.32929l0.21795,-0.05449h0.6129l0.00931,-0.00559l0.0845,-0.05378l0.01153,-0.00384l0.01074,-0.00644l0.00472,0.00128l0.05475,-0.01825l0.0395,-0.00303l0.0367,-0.01495l0.17873,-0.02553l0.06711,-0.01342l0.05677,-0.02839l0.06356,-0.01412l0.05971,-0.02596l0.28913,-0.04819l0.03113,-0.02075l0.01651,-0.0059l0.00733,-0.01282l0.09526,-0.02381l0.09247,-0.03303l0.00841,0.00421l0.04654,-0.01551l0.03316,-0.02211l0.07025,-0.02509l0.06582,-0.0351l0.21794,-0.05449h0.05366l0.05206,-0.01301h0.1098l0.05692,-0.01423h0.05366l0.05206,-0.01301h0.19153l0.05692,-0.01423h0.05366l0.05206,-0.01301h1.22596l0.01701,0.00426l0.01321,-0.0066l0.09247,0.03302l0.09525,0.02381h0.13622l0.06798,0.017l0.06986,0.00538l0.06585,0.02195l0.09273,0.02319l0.04236,0.02259l0.04686,0.01041l0.10897,0.05449l0.02702,0.02316l0.02172,0.00121l0.03274,0.0382l0.02341,0.01405l0.05433,0.01358l0.01654,0.02894l0.02805,0.01683l0.01153,0.00384l0.02647,0.01684l0.03063,0.0068l0.01694,0.00847h0.14229l0.08343,0.02085l0.03215,-0.00877l0.04802,0.02882l0.05434,0.01358l0.01653,0.02894l0.02643,0.01585l0.02696,0.00674l0.09777,0.02173l0.01086,0.00543l0.01215,0.00304l0.00243,0.00425l0.02904,0.01452l0.02092,0.01793l0.02594,0.00926l0.06745,0.04497l0.06036,0.01509l0.09777,0.02173l0.01086,0.00543l0.01215,0.00304l0.00014,0.00024l0.0511,0.01278l0.04235,0.02259l0.04686,0.01041l0.12591,0.06296h0.00607l0.09717,0.02429l0.09777,0.02173l0.01086,0.00543l0.01215,0.00304l0.00243,0.00425l0.08354,0.04177l0.0532,0.0456l0.06009,0.03605l0.08091,0.08091l0.01895,0.01625l0.01449,0.00362l0.12605,0.02521l0.02489,0.0118l0.02746,0.00211l0.05475,0.01825l0.00472,-0.00128l0.01074,0.00644l0.01153,0.00384l0.0845,0.05377l0.08588,0.05153l0.00447,0.00447l0.0457,0.02285l0.0532,0.0456l0.06009,0.03605l0.03171,0.03172l0.1002,0.05009l0.0532,0.0456l0.03078,0.01846l0.07948,0.01766l0.01086,0.00543l0.01215,0.00304l0.00243,0.00425l0.05582,0.02792l0.05235,0.01744l0.16179,0.10297l0.00859,0.00234l0.00103,0.00378l0.01812,0.01153l0.04118,0.20591l0.05525,0.20259l-0.01105,0.01841l0.00077,0.00384l-0.00664,0.00594l-0.09866,0.16445l-0.29674,0.29674l0.00001,0.00015l-0.07585,0.08344l-0.07339,0.08562l-0.00667,0.00037l-0.07694,0.0513l-0.07026,0.02509l-0.06582,0.0351l-0.02817,0.00704l-0.17798,0.17798l-0.03723,0.02234l-0.0292,0.03212l-0.04582,0.03055l-0.10276,0.10276l-0.00042,0.00255l-0.00689,0.00476l-0.02287,0.02287l-0.07917,0.0475l-0.076,0.05242l-0.03029,0.01135l-0.00718,0.00431l-0.00249,-0.00068l-0.17799,0.06675l-0.00823,0.00094l-0.00698,0.00445l-0.16347,0.05448l-0.01704,0.00131l-0.01508,0.00804l-0.01668,0.00417l-0.06193,0.04954l-0.06974,0.03197l-0.06472,0.04118l-0.08173,0.02724l-0.02747,0.00212l-0.02489,0.01179l-0.10882,0.02177c-0.07318,0.13794 -0.21828,0.23189 -0.38532,0.23189c-0.16135,0 -0.30221,-0.08766 -0.37758,-0.21795h-1.91088l-0.06798,-0.01699l-0.06986,-0.00538l-0.05598,-0.01866l-0.09775,-0.01954l-0.17873,-0.02553l-0.00009,-0.00004l-0.00634,0.00251l-0.09987,-0.04578l-0.10174,-0.04145l-0.00251,-0.00633l-0.0001,-0.00005l-0.11333,-0.09066l-0.11107,-0.06665l-0.03794,-0.03794l-0.04602,-0.02761l-0.02898,-0.02898l-0.13352,-0.09537l-0.09664,-0.04833l-0.00297,0.00047l-0.00743,-0.00566l-0.02583,-0.01292l-0.07103,-0.06088l-0.07441,-0.05669l-0.01804,-0.02255l-0.00108,-0.00092l-0.09265,-0.03089h-0.011l-0.01701,-0.00425l-0.01321,0.0066l-0.09247,-0.03302l-0.09526,-0.02382l-0.00733,-0.01282l-0.01651,-0.0059l-0.00999,-0.00666l-0.05166,-0.01033l-0.01386,-0.00656l-0.01534,-0.00033l-0.29968,-0.08173l-0.03787,-0.02124l-0.04238,-0.00942l-0.16574,-0.08287l-0.07897,-0.01579l-0.0249,-0.01179l-0.02746,-0.00212l-0.08173,-0.02724l-0.05911,-0.03762l-0.06458,-0.02719l-0.07753,-0.05815l-0.07382,-0.03691l-0.03521,-0.03017l-0.04215,-0.01932l-0.10016,-0.08013l-0.11701,-0.05851l-0.00666,0.00047l-0.08344,-0.07585l-0.04261,-0.03652l-0.03009,-0.01204l-0.01499,-0.01083l-0.01806,-0.00401l-0.01156,-0.00578l-0.00147,0.00026l-0.00432,-0.00316l-0.03714,-0.01857l-0.06781,-0.05813l-0.07211,-0.0527l-0.02658,-0.0319l-0.00406,-0.00349l-0.00009,-0.00149l-0.09284,-0.1114l-0.0405,-0.0405l-0.00274,-0.00456l-0.01596,-0.00399l-0.00854,-0.01495l-0.01719,-0.00095l-0.14621,-0.17057l-0.02332,-0.04664c-0.03189,-0.06057 -0.04994,-0.12957 -0.04994,-0.20279z" fill="#ffffff"/><path d="M242.725,272.5359c0,-0.24074 0.19516,-0.43589 0.4359,-0.43589c0.24074,0 0.4359,0.19515 0.4359,0.43589c0,0.24074 -0.19516,0.4359 -0.4359,0.4359c-0.24074,0 -0.4359,-0.19516 -0.4359,-0.4359z" fill="#ffffff"/><path d="M244.41411,275.58718c0,-0.24074 0.19515,-0.4359 0.43589,-0.4359c0.24074,0 0.4359,0.19516 0.4359,0.4359c0,0.24074 -0.19516,0.4359 -0.4359,0.4359c-0.24074,0 -0.43589,-0.19515 -0.43589,-0.4359z" fill="#ffffff"/><path d="M238.69295,275.99584c0,-0.24074 0.19516,-0.4359 0.4359,-0.4359c0.24074,0 0.4359,0.19516 0.4359,0.4359c0,0.24074 -0.19516,0.4359 -0.4359,0.4359c-0.24074,0 -0.4359,-0.19515 -0.4359,-0.4359z" fill="#ffffff"/><path d="M233.24423,273.51667c0,-0.24074 0.19516,-0.4359 0.4359,-0.4359c0.24074,0 0.4359,0.19515 0.4359,0.4359c0,0.24074 -0.19516,0.4359 -0.4359,0.4359c-0.24074,0 -0.4359,-0.19516 -0.4359,-0.4359z" fill="#ffffff"/></g><g stroke="#000000" stroke-linecap="butt"><path d="M234.36615,270.68877c-0.1035,-1.35476 0.91084,-2.5369 2.2656,-2.6404c1.35476,-0.1035 2.5369,0.91084 2.6404,2.2656c0.1035,1.35476 -0.91084,2.5369 -2.2656,2.6404c-1.35476,0.1035 -2.5369,-0.91084 -2.6404,-2.2656z" fill="#ffffff"/><path d="M237.03929,270.53279c-0.04361,-0.57087 0.38381,-1.06901 0.95469,-1.11262c0.57087,-0.04361 1.06901,0.38382 1.11262,0.95469c0.04361,0.57087 -0.38381,1.06901 -0.95469,1.11262c-0.57087,0.04361 -1.06901,-0.38382 -1.11262,-0.95469z" data-paper-data="{&quot;origPos&quot;:[&quot;Point&quot;,282.1615,254.92821]}" fill="#000000"/></g><path d="M238.14671,273.88169c0,0 -0.89908,0.4808 -1.73368,0.54456c-0.8031,0.06135 -1.60915,-1.14512 -1.60915,-1.14512" data-paper-data="{&quot;index&quot;:null}" fill="none" stroke="#000000" stroke-linecap="round"/><g data-paper-data="{&quot;index&quot;:null}" stroke="#000000" stroke-linecap="butt"><path d="M242.81861,272.94138c-1.35476,0.1035 -2.5369,-0.91084 -2.6404,-2.2656c-0.1035,-1.35476 0.91084,-2.5369 2.2656,-2.6404c1.35476,-0.1035 2.5369,0.91084 2.6404,2.2656c0.1035,1.35476 -0.91084,2.5369 -2.2656,2.6404z" fill="#ffffff"/><path d="M241.42525,271.47319c-0.57087,0.04361 -1.06901,-0.38381 -1.11262,-0.95468c-0.04361,-0.57087 0.38381,-1.06901 0.95468,-1.11262c0.57087,-0.04361 1.06901,0.38381 1.11262,0.95468c0.04361,0.57087 -0.38382,1.06901 -0.95469,1.11262z" fill="#000000"/></g></g><path d="M359.66041,180c0,65.45269 -53.57379,118.51259 -119.66041,118.51259c-66.08662,0 -119.66041,-53.0599 -119.66041,-118.51259c0,-65.45269 53.57379,-118.51259 119.66041,-118.51259c66.08662,0 119.66041,53.0599 119.66041,118.51259z" fill="none" stroke="#ffffff" stroke-width="4" stroke-linecap="butt"/><g stroke-width="1"><g stroke-linecap="butt"><path d="M228.59615,64c0,-6.57431 5.32954,-11.90385 11.90385,-11.90385c6.57432,0 11.90385,5.32954 11.90385,11.90385c0,6.57432 -5.32954,11.90385 -11.90385,11.90385c-6.57432,0 -11.90385,-5.32953 -11.90385,-11.90385z" fill="#d68400" stroke="#8e6000"/><path d="M229.02783,61.96096c0.50079,-0.5247 1.36502,-0.43384 2.00498,-0.59328c0.45733,-0.11394 0.92601,-0.3908 1.42554,-0.18193c0.25014,0.10459 0.4669,0.3098 0.606,0.54251c0.10504,0.17571 0.07047,0.40424 0.08212,0.60862c0.00393,0.06892 -0.08918,0.16021 -0.0358,0.20397c0.05466,0.04481 0.13004,-0.06399 0.20056,-0.06889c0.39113,-0.02716 0.5839,0.15033 0.86541,-0.19509c0.26159,-0.32099 -0.04394,-0.89213 0.55955,-1.05566c0.28476,-0.07716 1.50601,0.63878 1.82963,0.80199c0.13465,0.12041 0.38685,0.52849 0.65594,0.28786c0.12522,-0.11198 0.12146,-0.34137 0.26499,-0.42865c0.25138,-0.15286 0.55495,-0.21358 0.84719,-0.24761c0.18827,-0.02192 0.37434,0.06033 0.56247,0.08345c1.00813,0.12387 2.08025,0.42099 3.09855,0.41553c0.03082,-0.00016 -0.46377,-0.76574 -0.49094,-0.81422c-0.26379,-0.47076 -0.5225,-0.92448 -0.76317,-1.40586c-0.08944,-0.1789 -0.26866,-0.32909 -0.28415,-0.5285c-0.11247,-1.448 1.56235,-2.1652 2.53484,-2.90358c0.43423,-0.20958 1.19106,-0.51276 1.46428,-0.99412c0.35668,-0.62841 0.15199,-1.99809 1.3947,-1.86052c0.74568,0.08254 2.22445,1.48213 2.79866,1.87895c0.21091,0.14575 0.35464,0.2018 0.48716,0.48889c0.10217,0.22134 0.23991,0.46157 0.20319,0.70257c-0.05444,0.35738 -0.21854,0.71302 -0.45986,0.98219c-0.63183,0.70476 -1.63608,-0.02284 -2.25228,0.62497c0.34174,0.51062 0.99233,0.90431 1.28969,1.40328c0.15879,0.26646 0.24203,1.13684 0.18469,1.47638c-0.01948,0.11538 -0.18462,0.1964 -0.16231,0.31127c0.01426,0.07343 0.151,-0.00727 0.22427,0.00781c0.1847,0.03803 0.38405,0.05287 0.54529,0.15065c0.34222,0.20753 0.5512,0.60116 0.90392,0.79028c0.41455,0.22227 0.97085,0.29301 1.41224,0.45125c0.53874,0.19312 0.9244,0.30286 1.22367,0.8797c0.10701,0.20626 -0.08477,1.55998 -0.17635,1.93431c-0.12768,0.52194 -0.20698,0.98179 -0.56174,1.49973c-0.19758,0.11642 -0.37057,0.29239 -0.59274,0.34927c-0.69897,0.17894 -1.10224,-0.10269 -1.74112,-0.34889c-1.42633,-0.54967 -2.99598,-1.81866 -4.47954,-0.80728c-0.67164,0.45788 0.11212,1.34651 0.45657,1.72128c0.38235,0.41602 1.3833,1.22928 1.31444,1.89743c-0.03188,0.30942 -0.34976,0.51448 -0.52463,0.77172c-0.8168,0.04367 -1.62655,0.06536 -2.44454,0.05182c-0.22121,-0.00367 -0.45381,0.04755 -0.66333,-0.02353c-0.3305,-0.11213 -0.57337,-0.45892 -0.91996,-0.49989c-0.44291,-0.05236 -0.94082,-0.02449 -1.30926,-0.27582c-0.58854,-0.40148 -0.49521,-0.97832 -0.83632,-1.51539c-0.13135,-0.20679 -0.39205,-0.29622 -0.60517,-0.41705c-0.52447,-0.29735 -0.82603,-0.51308 -1.44697,-0.62444c-0.03707,-0.00665 -0.9045,-0.23105 -0.96722,0.07021c-0.07382,0.35455 0.09303,0.71834 0.14576,1.07664c0.45336,0.81324 0.68212,1.30664 0.6816,2.26907c-0.00022,0.38408 0.05373,1.10738 -0.25871,1.40548c-0.20849,0.19892 -0.55032,0.17251 -0.83027,0.24081c-0.97459,0.23777 -1.70712,0.14384 -2.51804,-0.48406c-0.23682,-0.18337 -0.80695,-0.91573 -0.88248,-1.16201c-0.15034,-0.49021 0.11342,-0.64564 0.06506,-1.08271c-0.11134,-1.00639 -0.34058,-2.11529 -0.08373,-3.12873c-0.79095,0.00954 -1.48162,0.5759 -2.26437,0.67795c-0.23486,0.03062 -0.49214,0.06632 -0.71004,-0.02651c-0.18733,-0.0798 -0.94274,-0.56606 -1.13654,-1.36791c-0.36907,-1.52707 -0.11339,-3.82497 0.06862,-4.01567z" fill="#f1c300" stroke="none"/><path d="M238.34862,52.55845c0.34582,-0.15456 0.69334,-0.28212 1.02953,-0.34286c0.51469,-0.093 0.92524,0.04998 1.42557,0.15442c0.23063,0.79367 0.3952,1.45605 -0.03244,2.2398c-0.58602,1.07399 -1.82533,1.34821 -2.80643,1.88719c-0.45833,0.2518 -0.89515,0.55003 -1.37957,0.74702c-0.31715,0.12897 -0.72545,0.04193 -0.99566,0.25217c-0.13748,0.10697 -0.13899,0.32716 -0.2578,0.45455c-0.63421,0.68 -0.99477,0.94298 -1.96738,0.9554c-0.69693,0.0089 -1.28763,-0.7305 -1.72805,-1.16986c0,0 -0.2663,-0.26631 -0.07486,-0.55756c-0.06216,-0.07825 -0.0993,-0.17728 -0.0993,-0.28498c0,-0.08113 0.02107,-0.15734 0.05804,-0.22346l0.31487,-0.59039l0.00514,0.00274l0.00344,-0.0181c0.39356,-0.58972 0.95447,-0.91181 1.55218,-1.22048c0.18716,-0.25084 0.39168,-0.48965 0.65595,-0.67958c1.01008,-0.72595 2.53138,-1.22154 3.73494,-1.50245c0.18663,-0.04356 0.37408,-0.07583 0.56182,-0.10355z" fill="#f1c300" stroke="none"/></g><g stroke="#000000" stroke-linecap="butt"><path d="M232.68315,63.0576c0,-2.01489 1.68806,-1.51648 3.70294,-1.51648c2.01489,0 3.59362,-0.49841 3.59362,1.51648c0,2.01489 -1.63339,3.64828 -3.64827,3.64828c-2.01488,0 -3.64828,-1.63339 -3.64828,-3.64828z" fill="#ffffff"/><path d="M236.6534,63.12893c0,-0.84904 0.68829,-1.53732 1.53733,-1.53732c0.84904,0 1.53732,0.68828 1.53732,1.53732c0,0.84904 -0.68828,1.53732 -1.53732,1.53732c-0.84904,0 -1.53733,-0.68829 -1.53733,-1.53732z" data-paper-data="{&quot;origPos&quot;:[&quot;Point&quot;,282.1615,254.92821]}" fill="#000000"/></g><path d="M242.52228,68.54405c0,0 1.28334,-1.34343 2.28265,-1.0885c1.03851,0.26493 2.06615,1.07009 2.06615,1.07009" data-paper-data="{&quot;index&quot;:null}" fill="none" stroke="#000000" stroke-linecap="round"/><g data-paper-data="{&quot;index&quot;:null}" stroke="#000000" stroke-linecap="butt"><path d="M244.66857,66.75207c-2.01488,0 -3.64827,-1.63339 -3.64827,-3.64827c0,-2.01489 1.08677,-1.46182 3.10166,-1.46182c2.01488,0 4.19489,-0.55307 4.19489,1.46182c0,2.01489 -1.6334,3.64827 -3.64828,3.64827z" fill="#ffffff"/><path d="M242.80928,64.71245c-0.84904,0 -1.53732,-0.68828 -1.53732,-1.53732c0,-0.84904 0.68828,-1.53732 1.53732,-1.53732c0.84904,0 1.53733,0.68828 1.53733,1.53732c0,0.84904 -0.68829,1.53732 -1.53733,1.53732z" data-paper-data="{&quot;origPos&quot;:[&quot;Point&quot;,282.1615,254.92821]}" fill="#000000"/></g></g><path d="M379.66041,180c0,76.39243 -62.52809,138.32074 -139.66041,138.32074c-77.13232,0 -139.66041,-61.92831 -139.66041,-138.32074c0,-76.39243 62.52809,-138.32074 139.66041,-138.32074c77.13232,0 139.66041,61.92831 139.66041,138.32074z" fill="none" stroke="#ffffff" stroke-width="4" stroke-linecap="butt"/><g stroke-width="1"><path d="M370.94874,185.44044c0,-4.99542 4.04959,-9.04501 9.04501,-9.04501c4.99542,0 9.04501,4.04959 9.04501,9.04501c0,4.99542 -4.04959,9.04501 -9.04501,9.04501c-4.99542,0 -9.04501,-4.04959 -9.04501,-9.04501z" fill="#0400ff" stroke="#00058c" stroke-linecap="butt"/><path d="M388.11955,181.76892c-0.03053,-0.00077 -0.05144,-0.006 -0.05144,-0.006l-0.11959,-0.03203c-0.16481,-0.06984 -0.20522,-0.11534 -0.39334,-0.07836c-0.21216,0.0417 -0.29553,0.2268 -0.55055,0.20519c-0.10338,-0.00876 -0.16014,-0.13491 -0.25278,-0.18163c-0.08451,-0.04262 -0.33268,-0.06279 -0.41775,-0.04617c-0.3259,0.06367 -0.63699,0.15465 -0.98122,0.16209c-0.12442,0.00269 -0.25785,0.0365 -0.37321,-0.01018c-0.23164,-0.09375 -0.44432,-0.32827 -0.3844,-0.51835c-0.12934,-0.05821 -0.37395,-0.16286 -0.27122,0.00873c-0.02208,0.14375 0.03491,0.32674 -0.06623,0.43124c-0.23216,0.23985 -0.87465,-0.02301 -1.03871,-0.22374c-0.09989,-0.12221 -0.05801,-0.33151 -0.17123,-0.44148c-0.02743,-0.02664 -0.07664,-0.00668 -0.11341,-0.01716c-0.0354,-0.01009 -0.07747,-0.07211 -0.10126,-0.04403c-0.03506,0.04138 0.021,0.11241 0.00072,0.16271c-0.07431,0.1843 -0.3409,0.46433 -0.49921,0.54296c-0.10455,0.05193 -0.46101,0.04169 -0.58849,0.04174c-0.33933,0.00013 -0.68951,0.04363 -1.01365,-0.08505c-0.11802,-0.04685 -0.22498,-0.11692 -0.33446,-0.18201c-0.02692,0.01141 -0.05955,0.01832 -0.09909,0.01832c-0.22613,0 -0.22613,-0.22613 -0.22613,-0.22613c0,-0.07015 -0.003,-0.53357 0.0116,-0.56898c0.16642,-0.40341 0.53573,-0.38004 0.9003,-0.33352c0.12281,0.01567 0.24011,0.15098 0.35574,0.10675c0.05071,-0.0194 0.11195,-0.09622 0.08139,-0.1411c-0.12961,-0.19034 -0.63407,-0.05653 -0.57825,-0.49477c0.03296,-0.25874 0.69497,-0.40145 0.8953,-0.42062c0.06066,-0.0058 0.13237,0.02147 0.18232,-0.01343c0.14026,-0.09799 0.20271,-0.27748 0.32421,-0.39795c0.19802,-0.33946 0.37375,-0.58976 0.78139,-0.66958c0.23439,-0.0459 0.34984,-0.09159 0.44125,-0.06267c-0.08928,-0.12277 -0.18874,-0.24316 -0.28089,-0.35385c-0.01081,-0.01298 -0.10516,-0.15653 -0.17175,-0.10758c-0.16213,0.11919 -0.23257,0.38505 -0.40427,0.51323c-0.18058,0.13482 -0.42496,0.17918 -0.65024,0.18507c-0.10448,0.00273 -0.21784,0.05206 -0.31341,0.00973c-0.28731,-0.12724 -0.34908,-0.36342 -0.46698,-0.61248c-0.15676,-0.32983 -0.24064,-0.67156 0.04391,-0.98145c0.06858,-0.07469 0.18116,-0.09176 0.26714,-0.14552c0.06116,-0.03825 0.25503,-0.12393 0.55801,-0.0496c0.4005,0.09826 0.87848,0.25007 1.38519,0.44922c0.63625,0.25006 1.27752,0.55058 1.411,0.63949c0,0 0.96116,0.7589 1.68959,1.46691c0.46895,0.4558 0.82099,0.9723 0.82608,0.97951c0.23418,0.33208 0.84601,1.22911 0.87591,1.59304c0.00734,0.08932 -0.10864,-0.06047 -0.11789,-0.0705z" fill="#00ff15" stroke="none" stroke-linecap="butt"/><path d="M385.34213,181.6182c0.02155,-0.13612 0.17075,-0.17342 0.17075,-0.17342l0.14529,-0.02937c0.53981,0 1.06749,0.05263 1.60318,0.09136c0.18479,0.01336 0.68815,0.17737 0.90746,0.34801c0.2386,0.18564 0.32857,0.66806 0.42751,0.9403c0.07615,0.20955 0.17067,0.20601 -0.04008,0.30466c-0.11869,0.05556 -0.23311,-0.12281 -0.35802,-0.16247c-0.10738,-0.03409 -0.44958,-0.03757 -0.5438,0.02949c-0.02194,0.01562 0.03037,0.04567 0.03718,0.07172c0.01392,0.05322 -0.01308,0.12285 0.02426,0.16324c0.06584,0.07123 0.18894,0.06876 0.25546,0.13936c0.07755,0.08231 0.09634,0.20547 0.15845,0.29997c0.21914,0.33342 0.52489,0.65884 0.31787,1.11014c-0.13757,0.29993 -0.40675,0.44018 -0.68848,0.43841c0.03519,0.05998 0.05975,0.12549 0.06936,0.19154c0.01845,0.12676 -0.10888,0.23283 -0.14632,0.35533c-0.12894,0.42184 -0.21606,0.77194 -0.63234,1.02274c-0.1481,0.08923 -0.29741,0.22129 -0.4703,0.21878c-0.56877,-0.00824 -0.40164,-0.5654 -0.59619,-0.87058c-0.40534,-0.19728 -0.79247,0.01926 -1.19835,0.07703c-0.01868,0.00266 -0.49492,0.00219 -0.57406,0.00219c-0.33687,0 -0.71517,0.04139 -1.0462,-0.0285c-0.15267,-0.03223 -0.29966,-0.10275 -0.45562,-0.10737c-0.35367,-0.01049 -0.70874,0.02368 -1.06063,-0.0244c-0.39533,-0.05401 -0.77242,-0.18891 -1.14599,-0.32501c-0.27567,-0.07354 -0.76151,-0.09525 -0.97509,-0.3057c-0.22517,-0.22188 -0.1557,-0.60587 -0.15554,-0.88235c0.00018,-0.30685 -0.02027,-0.80918 0.13982,-1.07904c0.0686,-0.11563 0.18943,-0.19105 0.27859,-0.29169c0.12321,-0.13907 0.19558,-0.31842 0.32018,-0.45624c0.21062,-0.23297 0.50194,-0.28474 0.76755,-0.41129c0.27256,-0.12987 0.49697,-0.30937 0.82843,-0.26998c0.21306,0.02532 0.41965,0.10086 0.63395,0.1114c0.61934,0.00023 1.1712,0.16282 1.75791,0.34965c0.17163,0.05465 0.35524,0.07329 0.52071,0.14446c0.06374,0.02741 0.10086,0.10464 0.16769,0.1233c0.14133,0.03947 0.47354,-0.04527 0.62931,-0.05161c0.09339,-0.0038 0.27421,0.03109 0.27338,-0.06237c-0.00126,-0.1422 -0.07419,-0.27522 -0.09505,-0.41588c-0.0072,-0.04853 0.01637,-0.10766 -0.01352,-0.14656c-0.04587,-0.05969 -0.12755,-0.08 -0.19133,-0.11999c0,0 -0.18287,-0.133 -0.04988,-0.31587c0.00083,-0.00115 0.00167,-0.00228 0.00251,-0.0034zM387.16796,184.965c-0.20069,-0.17473 -0.33271,-0.55076 -0.60893,-0.58738c-0.03446,0.0063 -0.50729,0.07863 -0.50944,0.1052c-0.00363,0.04475 0.04519,0.07882 0.05652,0.12226c0.04523,0.17341 -0.02625,0.26875 0.16305,0.33435c0.24796,0.08592 0.64454,0.02293 0.89879,0.02557z" fill="#faff00" stroke="none" stroke-linecap="butt"/><path d="M382.91842,186.0104c0.11707,-0.17316 0.30089,-0.06287 0.30089,-0.06287l0.01922,0.03673c0.23274,0.0253 0.41674,0.11727 0.64648,0.11214c0.22079,-0.01856 0.47125,-0.01575 0.68828,-0.06357c0.36236,-0.07984 0.89465,-0.24663 1.26155,-0.06702c0.23808,0.11656 0.32998,0.4977 0.49124,0.68275c0.12937,0.14846 0.47628,0.32052 0.55192,0.49975c0.12372,0.29315 -0.0144,0.44921 -0.13941,0.68427c-0.27955,0.52563 -0.70857,1.02306 -1.15787,1.4136c-0.35949,0.18084 -0.80402,0.40002 -1.20995,0.24628c-0.20535,-0.07777 -0.3604,-0.33258 -0.51812,-0.45409c-0.36608,-0.28202 -0.76145,-0.25148 -0.90171,-0.78643c-0.11734,-0.44754 0.01333,-0.9248 0.03926,-1.37557c0.01385,-0.24074 0.04376,-0.3684 -0.19732,-0.43454c0,0 -0.20995,-0.08398 -0.12597,-0.29393c0.06035,-0.15086 0.18573,-0.14996 0.25153,-0.1375z" fill="#009a1b" stroke="none" stroke-linecap="butt"/><path d="M383.33,188.42084c0.07983,0.00131 0.14317,0.04881 0.14317,0.04881l0.1809,0.13568c0.11097,0.08652 0.25904,0.1123 0.37914,0.18563c0.27318,0.16679 0.50701,0.42056 0.78095,0.59499c0.09535,0.06071 0.52773,0.27942 0.53725,0.29961c0.05797,0.1229 -0.05262,0.26665 -0.0763,0.40046c-0.03564,0.20135 -0.09555,0.40118 -0.18604,0.58455c-0.4099,0.53063 -0.8561,0.85731 -1.54805,0.85178c-0.30068,-0.00241 -0.76881,-0.08008 -0.92585,-0.39635c-0.1319,-0.26562 0.01285,-0.71919 0.07182,-0.98619c0.07335,-0.33213 0.0498,-0.67599 0.11074,-1.00539c0.03681,-0.19896 0.11244,-0.39461 0.11014,-0.59693c0,0 0,-0.22613 0.22613,-0.22613c0.11067,0 0.16717,0.05416 0.19602,0.10947z" data-paper-data="{&quot;origPos&quot;:[&quot;Point&quot;,534.24242,431.45536]}" fill="#faff00" stroke="none" stroke-linecap="butt"/><path d="M379.93711,176.60151c0.01342,0.08051 -0.00707,0.1368 -0.03873,0.17587c-0.005,0.0772 -0.05174,0.13669 -0.05174,0.13669c-0.19337,0.2451 -0.48347,0.64589 -0.77915,0.78688c-0.43721,0.20849 -0.95617,-0.0017 -0.95891,-0.52154c-0.00067,-0.12665 0.01579,-0.26987 0.09647,-0.3675c0.08352,-0.10107 0.2346,-0.11717 0.35212,-0.17531c0.30461,-0.15071 0.52766,-0.17788 0.86689,-0.17803l0.25283,-0.04292c0,0 0.22305,-0.03718 0.26022,0.18587z" fill="#e8e8e8" stroke="none" stroke-linecap="butt"/><path d="M372.52031,185.71933c-0.13568,0.1809 -0.31658,0.04523 -0.31658,0.04523c-0.50952,-0.38413 -1.01083,-0.41631 -1.18017,-1.10063c-0.05316,-0.21484 0.29828,-1.43197 0.29828,-1.43197l0.35108,0.07722c0.06659,0.08343 0.16076,0.15092 0.19979,0.25027c0.10593,0.26967 -0.03556,0.45098 0.13386,0.72159c0.19166,0.30612 0.76723,0.35652 1.07549,0.42461c0.09043,0.01997 0.19296,-0.00471 0.27525,0.03777c0.1167,0.06024 0.21553,0.15563 0.29776,0.25803c0.04768,0.05938 0.03527,0.15272 0.081,0.21362c0.1313,0.17486 0.51975,0.20904 0.67606,0.33566c0.11602,0.09399 0.15079,0.28829 0.29031,0.34122c0.7184,-0.27323 1.86381,-0.19855 2.30706,0.52332c0.09446,0.15384 0.12092,0.32923 0.17895,0.49583c0.10713,0.30752 0.16044,0.58155 0.14832,0.91122c-0.00399,0.10869 0.02775,0.22927 -0.02299,0.32547c-0.05758,0.10915 -0.17879,0.17107 -0.27778,0.24475c-0.24237,0.1804 -0.50437,0.33252 -0.78097,0.44944c-0.2667,0.13191 -0.66634,0.34519 -0.83244,0.59724c-0.10636,0.1614 -0.18579,0.33975 -0.29509,0.49917c-0.12061,0.17593 -0.33286,0.5579 -0.24732,0.78924c0.04908,0.13273 0.21386,0.18757 0.30238,0.29797c0.2276,0.28385 0.50516,0.58355 0.6752,0.90959c0.05617,0.1077 0.16411,0.21474 0.14436,0.33458c-0.0731,0.44339 -0.63314,0.48138 -0.96556,0.38307c-0.13136,-0.03885 -0.23625,-0.13872 -0.35437,-0.20808c-0.33269,-0.22721 -0.39725,-0.53089 -0.66776,-0.7961c-0.05545,-0.05437 -0.13728,-0.0756 -0.19482,-0.12775c-0.15737,-0.14264 -0.2507,-0.34292 -0.3755,-0.51478c-0.11837,-0.16299 -0.30794,-0.28457 -0.38827,-0.47866c-0.03041,-0.07348 -0.00106,-0.16176 -0.02656,-0.23709c-0.07726,-0.22825 -0.33359,-0.4083 -0.4069,-0.63279c-0.0715,-0.21891 0.02048,-0.49602 -0.00991,-0.72225c-0.05916,-0.44038 -0.31405,-0.79297 -0.31827,-1.2487c0.0007,-0.25882 -0.00173,-0.6112 0.07761,-0.85721c0.08012,-0.24845 0.20207,-0.35885 0.42765,-0.47354c0.04651,-0.02365 0.1228,0.01205 0.15361,-0.03005c0.03457,-0.04725 0.00184,-0.11729 -0.00311,-0.17563c-0.02724,-0.32106 -0.17232,-0.37919 -0.42917,-0.43148c-0.00016,0.00021 -0.00031,0.00042 -0.00047,0.00063z" fill="#009a1b" stroke="none" stroke-linecap="butt"/><path d="M372.51552,180.51502c0.23597,-0.31487 0.86286,-1.16488 0.9485,-1.26008c0.07599,-0.08447 0.61194,-0.71535 0.90293,-0.86165c0.2753,-0.16873 1.03939,-0.73528 1.25165,-0.75248c0.15199,-0.01232 0.28354,-0.22032 0.37762,-0.10031c0.2889,0.3685 -0.09967,0.43797 -0.18671,0.64687c-0.05491,0.13179 0.04639,0.28183 0.07501,0.42172c0.01175,0.05741 0.00004,0.12168 0.02698,0.17372c0.0401,0.07748 0.14166,0.11795 0.16715,0.20137c0.07642,0.25005 -0.0066,0.57573 -0.23594,0.72856c-0.09608,0.06402 -0.23038,0.01644 -0.34517,0.02885c-0.48721,0.05269 -0.99935,0.08617 -1.47171,0.21078c-0.20695,0.24312 -0.0275,0.39402 -0.19886,0.71183c-0.1812,0.33605 -0.58759,0.56368 -0.75104,0.9298c-0.03898,0.0873 0.09108,0.31176 0.09607,0.34396c0.04094,0.2639 0.00762,0.41632 -0.11237,0.64551c-0.21818,0.41675 -0.77902,0.71923 -1.12069,0.20932c-0.05392,-0.08047 -0.02244,-0.19299 -0.04611,-0.28692c-0.04845,-0.19222 -0.14198,-0.37018 -0.21561,-0.55422c0,0 0.53929,-1.03763 0.83831,-1.43662z" fill="#00ff15" stroke="none" stroke-linecap="butt"/><path d="M377.09582,193.69962c0.08398,-0.20995 0.29393,-0.12597 0.29393,-0.12597l0.08514,0.03406c0.01247,-0.06088 -0.01274,-0.13015 -0.01069,-0.19396c0.01615,-0.50282 -0.99101,-0.49994 -0.39067,-1.11782c0.09422,-0.09697 0.26029,-0.07786 0.39448,-0.09443c0.47349,-0.05846 1.25505,0.19359 1.45141,0.68852c0.05198,0.13101 -0.01105,0.28182 -0.02429,0.42215c-0.00805,0.08525 0.05316,-0.17649 0.12358,-0.2252c0.12288,-0.08499 0.28433,-0.09189 0.42649,-0.13784c0.75637,-0.0059 1.51255,0.02043 2.27,0.02043c0.44318,0 0.91272,-0.03861 1.35444,0.00091c0.42848,0.03834 0.89465,0.10504 0.51758,0.73082c-0.01095,0.01818 -2.03063,0.65612 -2.2626,0.6861c-1.28915,0.16658 -3.36905,-0.14581 -3.61872,-0.25527c0,0 -0.68557,-0.24382 -0.61009,-0.4325z" fill="#e8e8e8" stroke="none" stroke-linecap="butt"/><g stroke="#000000"><g><g stroke-linecap="butt"><path d="M373.81737,184.53604c0,-1.61235 1.30707,-2.91942 2.91942,-2.91942c1.61235,0 2.91942,1.30707 2.91942,2.91942c0,1.61235 -1.30707,2.91942 -2.91942,2.91942c-1.61235,0 -2.91942,-1.30707 -2.91942,-2.91942z" fill="#ffffff"/><path d="M377.17722,184.45363c0,-0.67942 0.55078,-1.2302 1.2302,-1.2302c0.67942,0 1.2302,0.55077 1.2302,1.2302c0,0.67942 -0.55077,1.2302 -1.2302,1.2302c-0.67942,0 -1.2302,-0.55078 -1.2302,-1.2302z" fill="#000000"/></g><path d="M373.75926,181.35607l1.03841,1.03841" fill="none" stroke-linecap="round"/></g><g data-paper-data="{&quot;index&quot;:null}"><g fill="#ffffff" stroke-linecap="butt"><path d="M383.11392,187.58824c-1.61235,0 -2.91942,-1.30707 -2.91942,-2.91942c0,-1.61235 1.18002,-2.99586 2.79237,-2.99586c1.61235,0 3.04647,1.38351 3.04647,2.99586c0,1.61235 -1.30707,2.91942 -2.91942,2.91942z"/></g><path d="M385.66906,183.28617l1.03841,-1.03842" fill="none" stroke-linecap="round"/></g><path d="M385.27529,187.84102c0,0 -0.57434,0.53182 -1.18184,0.74136c-0.58457,0.20163 -1.4177,-0.53784 -1.4177,-0.53784" data-paper-data="{&quot;index&quot;:null}" fill="none" stroke-linecap="round"/><path d="M380.24549,184.55705c0,-0.67942 0.55078,-1.2302 1.2302,-1.2302c0.67942,0 1.2302,0.55077 1.2302,1.2302c0,0.67942 -0.55077,1.2302 -1.2302,1.2302c-0.67942,0 -1.2302,-0.55077 -1.2302,-1.2302z" fill="#000000" stroke-linecap="butt"/></g></g><path d="M403.66041,180c0,89.52012 -73.27326,162.09052 -163.66041,162.09052c-90.38715,0 -163.66041,-72.57041 -163.66041,-162.09052c0,-89.52012 73.27326,-162.09052 163.66041,-162.09052c90.38715,0 163.66041,72.57041 163.66041,162.09052z" fill="none" stroke="#ffffff" stroke-width="4" stroke-linecap="butt"/><g stroke-width="1"><g stroke-linecap="butt"><path d="M75.92683,233c0,-4.45869 3.61448,-8.07317 8.07317,-8.07317c4.45869,0 8.07317,3.61448 8.07317,8.07317c0,4.45869 -3.61448,8.07317 -8.07317,8.07317c-4.45869,0 -8.07317,-3.61448 -8.07317,-8.07317z" fill="#ff4b4b" stroke="#923d3d"/><path d="M86.76345,228.09963c0.12072,-0.15825 0.33273,-0.09465 0.33273,-0.09465c0.79916,0.24114 2.4233,0.77858 1.77923,1.94546c-0.12023,0.21782 -0.48161,0.24185 -0.57926,0.47068c-0.05649,0.13236 0.01152,0.28773 0.00973,0.43163c-0.00531,0.42861 0.0505,0.57766 -0.37591,0.85473c-0.22402,0.14556 -1.0282,0.20858 -1.27154,0.09083c-0.35809,-0.17327 -0.48366,-0.66286 -0.80666,-0.86124c-0.10291,-0.06321 -0.23233,-0.06609 -0.3485,-0.09913c-0.36313,-0.20423 -0.51097,-0.20279 -0.66634,-0.62638c-0.13588,-0.37046 -0.0629,-0.84294 -0.06763,-1.22981c-0.00185,-0.15085 -0.06706,-0.31289 -0.00981,-0.45246c0.0773,-0.18844 0.21439,-0.36617 0.38878,-0.4714c0.4627,-0.2792 1.10186,-0.08294 1.61517,0.04175z" fill="#9a2d2d" stroke="none"/><path d="M80.57646,233.76608c0.28181,0.08849 0.56982,0.2101 0.77413,0.38044c0.11449,0.09545 0.16948,0.24551 0.26196,0.3624c0.13928,0.17604 0.35571,0.27613 0.513,0.43628c0.22556,0.22967 0.33337,0.55111 0.51358,0.81785c0.26747,0.39592 0.58463,0.3877 0.43894,1.03781c-0.13358,0.59604 -0.59644,0.5119 -1.0365,0.53455c-0.98929,0.05093 -1.75602,-0.13747 -2.52948,-0.76407c-0.39274,-0.53878 -0.78082,-1.04006 -1.12441,-1.60489c-0.13523,-0.22231 -0.30582,-0.43791 -0.36078,-0.69225c-0.16965,-0.78519 0.33217,-1.38785 1.16984,-1.28885c0.54085,0.06392 0.96283,0.3676 1.33111,0.73211z" fill="#9a2d2d" stroke="none"/><path d="M86.65501,236.46207c-0.04934,-0.18505 0.04494,-0.28695 0.12536,-0.33812c-0.09361,-0.661 -0.14997,-1.49991 0.14885,-2.08792c0.16104,-0.31689 0.31673,-0.35682 0.58755,-0.54995c0.28364,-0.20227 0.56018,-0.47605 0.85738,-0.65364c0.1299,-0.07762 0.89936,-0.36908 0.95841,-0.39286c0.15337,-0.06176 1.07372,-0.45524 1.21898,-0.47451c0.19815,-0.02629 0.44893,-0.06513 0.59544,0.07083c0.23873,0.22153 0.07335,1.01527 0.01145,1.28992c-0.26339,0.91976 -0.47428,2.18093 -1.33858,2.74837c-0.71675,0.47057 -1.62092,0.35255 -2.42174,0.51304l-0.36056,0.09631c0,0 -0.30201,0.08053 -0.38254,-0.22147z" fill="#9a2d2d" stroke="none"/><path d="M86.64446,236.38153c0,-0.17262 0.13994,-0.31256 0.31256,-0.31256c0.17262,0 0.31256,0.13994 0.31256,0.31256c0,0.17262 -0.13994,0.31256 -0.31256,0.31256c-0.17262,0 -0.31256,-0.13994 -0.31256,-0.31256z" fill="#9a2d2d" stroke="none"/><path d="M81.75805,229.8166c-0.0394,0.09501 -0.08939,0.17927 -0.1763,0.22607c-0.49955,0.269 -0.71445,0.11185 -0.8117,-0.17229c-0.01817,0.00329 -0.03688,0.005 -0.05599,0.005c-0.17262,0 -0.31256,-0.13994 -0.31256,-0.31256c0,-0.01785 0.0015,-0.03535 0.00437,-0.05238c-0.03319,0.03635 -0.0659,0.07308 -0.09815,0.11015c0,0 -0.0924,0.1056 -0.22413,0.11338c-0.15043,0.20582 -0.29932,0.41319 -0.44503,0.62366c0,0 -0.17791,0.25698 -0.43489,0.07907c-0.25698,-0.17791 -0.07908,-0.4349 -0.07908,-0.4349c0.53547,-0.77346 1.11536,-1.50538 1.65473,-2.27224l0.00064,-0.00914c0,0 0.13978,-0.27956 0.41934,-0.13978c0.27956,0.13978 0.13978,0.41934 0.13978,0.41934l-0.0487,0.08956c-0.029,0.04112 -0.05811,0.08213 -0.08732,0.12306c0.11367,0.04677 0.19369,0.15863 0.19369,0.28916c0,0.01544 -0.00111,0.03062 -0.00328,0.04546l-0.01815,0.13916l0.17128,0.1004l-0.23108,0.39414c0.00171,0.01721 0.00326,0.03442 0.00451,0.05164l0.52318,0.26873l0.04198,-0.00279c-0.0035,0.00627 -0.0069,0.01265 -0.01021,0.01911l0.03996,0.02053c0,0 0.00001,0.19742 -0.15689,0.27846z" fill="#9a2d2d" stroke="none"/><path d="M82.26871,225.23385c1.13215,-0.4479 2.83933,-0.19002 3.99351,0.07901c0.23436,0.05463 0.89864,0.25544 1.21092,0.52805c0.23624,0.10009 0.45027,0.29667 0.51422,0.48421c0.16451,0.48236 -1.06516,0.87542 -1.42451,0.87542c-0.38907,0 -1.0153,-0.00071 -1.40437,-0.00195c-0.27623,-0.00088 -0.58925,-0.02519 -0.86381,-0.04128c-0.25479,-0.01494 -0.50498,-0.06549 -0.75781,-0.08129c-0.45033,-0.02812 -2.09376,-0.31804 -2.54686,-0.87674c-0.09501,-0.04593 -0.16324,-0.13854 -0.17492,-0.24805c-0.0358,-0.087 -0.00438,-0.16422 0.07014,-0.23298c0.03666,-0.04417 0.08526,-0.0781 0.14084,-0.09682c0.3613,-0.19638 1.04852,-0.31078 1.24265,-0.38758z" fill="#ffffff" stroke="none"/><path d="M80.95252,240.33868c-0.05558,-0.01871 -0.10417,-0.05264 -0.14084,-0.09682c-0.07452,-0.06876 -0.10594,-0.14598 -0.07014,-0.23298c0.01167,-0.10951 0.07991,-0.20212 0.17492,-0.24805c0.4531,-0.55871 2.09654,-0.84862 2.54687,-0.87674c0.25284,-0.01579 0.50302,-0.06635 0.75781,-0.08129c0.27456,-0.0161 0.58757,-0.0404 0.8638,-0.04128c0.38907,-0.00124 1.0153,-0.00195 1.40437,-0.00195c0.35935,0 1.58901,0.39305 1.42451,0.87542c-0.06396,0.18753 -0.27798,0.38412 -0.51423,0.48421c-0.31229,0.27262 -0.97656,0.47342 -1.21093,0.52805c-1.15419,0.26904 -2.86136,0.52692 -3.99351,0.07901c-0.19413,-0.0768 -0.88135,-0.1912 -1.24265,-0.38758z" data-paper-data="{&quot;index&quot;:null}" fill="#ffffff" stroke="none"/></g><g stroke="#000000" stroke-linecap="butt"><path d="M78.9129,232.40358c0,-1.37349 1.11344,-2.48693 2.48693,-2.48693c1.37349,0 2.48692,1.11344 2.48692,2.48693c0,1.37349 -1.11343,2.48692 -2.48692,2.48692c-1.37349,0 -2.48693,-1.11343 -2.48693,-2.48692z" fill="#ffffff"/><path d="M81.61931,232.45221c0,-0.57877 0.46919,-1.04795 1.04795,-1.04795c0.57877,0 1.04794,0.46918 1.04794,1.04795c0,0.57877 -0.46918,1.04794 -1.04794,1.04794c-0.57877,0 -1.04795,-0.46918 -1.04795,-1.04794z" data-paper-data="{&quot;origPos&quot;:[&quot;Point&quot;,282.1615,254.92821]}" fill="#000000"/></g><path d="M84.11328,235.95269c0,0 -0.94325,0.41539 -1.78939,0.41539c-0.8142,0 -1.53377,-1.27813 -1.53377,-1.27813" data-paper-data="{&quot;index&quot;:null}" fill="none" stroke="#000000" stroke-linecap="round"/><g data-paper-data="{&quot;index&quot;:null}" stroke="#000000" stroke-linecap="butt"><path d="M86.9373,234.93479c-1.37349,0 -2.48692,-1.11343 -2.48692,-2.48692c0,-1.37349 1.11343,-2.48693 2.48692,-2.48693c1.37349,0 2.48693,1.11344 2.48693,2.48693c0,1.37349 -1.11344,2.48692 -2.48693,2.48692z" fill="#ffffff"/><path d="M85.66988,233.54444c-0.57877,0 -1.04795,-0.46919 -1.04795,-1.04795c0,-0.57877 0.46918,-1.04795 1.04795,-1.04795c0.57877,0 1.04795,0.46918 1.04795,1.04795c0,0.57877 -0.46919,1.04795 -1.04795,1.04795z" data-paper-data="{&quot;origPos&quot;:[&quot;Point&quot;,282.1615,254.92821]}" fill="#000000"/></g></g><path d="M425.66041,180c0,101.55383 -83.123,183.87949 -185.66041,183.87949c-102.53741,0 -185.66041,-82.32566 -185.66041,-183.87949c0,-101.55383 83.123,-183.87949 185.66041,-183.87949c102.53741,0 185.66041,82.32566 185.66041,183.87949z" fill="none" stroke="#a5a5a5" stroke-width="14.5" stroke-linecap="butt"/><path d="M459.16041,180c0,119.8779 -98.12146,217.05814 -219.16041,217.05814c-121.03895,0 -219.16041,-97.18026 -219.16041,-217.05814c0,-119.8779 98.12146,-217.05814 219.16041,-217.05814c121.03895,0 219.16041,97.18026 219.16041,217.05814z" fill="none" stroke="#ffffff" stroke-width="4" stroke-linecap="butt"/><g stroke-width="1"><path d="M18.46529,119.25c0,-6.78467 5.50006,-12.28472 12.28473,-12.28472c6.78467,0 12.28472,5.50006 12.28472,12.28473c0,6.78467 -5.50006,12.28472 -12.28472,12.28472c-6.78467,0 -12.28472,-5.50006 -12.28472,-12.28472z" fill="#e4c27b" stroke="#766540" stroke-linecap="butt"/><path d="M40.58537,111.95328c0.24995,0.3085 0.55652,0.77796 0.72685,1.14207c0.11213,0.23971 0.25837,0.71288 0.0379,0.94309c-0.21842,0.22807 -0.84721,0.24723 -1.14588,0.33801c-0.28869,0.08775 -0.56154,0.13222 -0.86132,0.1575c-1.55372,0.20589 -3.01506,0.77547 -4.56864,0.99367c-0.29384,0.04127 -0.65213,0.00191 -0.94898,0.00191c-0.65673,0 -1.31346,0 -1.97019,0c-0.91062,-0.00021 -1.68499,-0.26632 -2.55253,-0.47756c-0.57092,-0.13902 -1.13286,0.02852 -1.69632,0.07896c-0.92737,0.08301 -1.81719,-0.15072 -2.72679,-0.14934c-0.47084,-0.09417 -0.95137,-0.04421 -1.41889,-0.15346c-0.35635,-0.08327 -0.32971,-0.15664 -0.68372,-0.31015c-0.25914,-0.11237 -0.54008,-0.10488 -0.80428,-0.1929c-0.16612,-0.05534 -0.3095,-0.167 -0.47486,-0.22458c-0.23901,-0.08323 -0.60281,-0.08988 -0.81758,-0.22136c-0.13477,-0.08251 -0.21165,-0.2416 -0.34728,-0.32269l-0.19555,-0.12222c-0.06544,-0.03943 -0.10922,-0.11118 -0.10922,-0.19315c0,-0.04465 0.01299,-0.08627 0.03539,-0.12128c0.02083,-0.05313 0.05546,-0.08777 0.05546,-0.08777l0.02486,-0.02486c0.165,-0.165 0.34453,-0.32982 0.50546,-0.50457c0.09957,-0.19073 0.2259,-0.35261 0.37383,-0.52225l0.1696,-0.21806c0.0078,-0.01023 0.01645,-0.01977 0.02585,-0.02851c0.00033,-0.02277 0.0042,-0.0478 0.01264,-0.07525c0.06627,-0.21537 0.28164,-0.1491 0.28164,-0.1491c0.19683,0.06085 0.37489,0.18439 0.578,0.21886c0.28182,0.04782 0.57173,-0.00217 0.85753,0.00285c0.75087,0.0132 1.51528,-0.02839 2.26419,0.01735c0.38359,0.02343 0.76015,0.11998 1.14445,0.14652c0.75208,0.05193 1.52589,0.00217 2.2797,0.00217c1.09701,0 2.19112,0.09535 3.28827,0.02871c0.68282,-0.04148 1.33658,-0.23151 2.01143,-0.27689c0.52934,-0.0356 1.07684,-0.00039 1.60728,-0.00039c0.88666,0 1.88065,0.03896 2.74122,-0.21433c0.41308,-0.12158 0.83183,-0.25591 1.25832,-0.35202l0.21109,-0.04691c0.0713,-0.0225 0.12686,-0.01015 0.16859,0.01436c0.04377,0.02063 0.0853,0.05955 0.10693,0.1311c0.13895,0.3434 0.33301,0.49778 0.55555,0.77246z" fill="#e37128" stroke="none" stroke-linecap="butt"/><path d="M18.87011,116.48164c0.0052,-0.05714 0.01039,-0.11429 0.01559,-0.17143c0.02641,-0.26101 -0.05287,-0.68924 0.23406,-0.85163c0.04066,-0.02301 0.08653,-0.04687 0.13452,-0.06722c-0.00418,-0.03727 0.00237,-0.08058 0.02704,-0.12993c0.10077,-0.20155 0.30232,-0.10077 0.30232,-0.10077c0.43144,0.21999 0.58095,0.48876 0.87909,0.83788c0.13081,0.15317 0.53222,0.31883 0.70851,0.40337c0.62267,0.29861 1.24172,0.38886 1.91431,0.50726c0.99032,0.17434 1.94804,0.50065 2.95339,0.56502c0.43579,0.04358 0.87306,0.13089 1.31073,0.14868c1.02277,0.04159 2.03152,-0.08812 3.05374,-0.06435c0.98008,0.02279 2.13765,0.17305 3.08846,-0.08235c0.49941,-0.02738 0.9397,-0.17729 1.42688,-0.22507c0.68288,-0.06697 1.37107,0.02699 2.05129,-0.07293c0.49459,-0.07265 1.05562,-0.22777 1.52056,-0.41002c0.2031,-0.07961 0.38318,-0.21522 0.59144,-0.28014c0.09937,-0.03098 0.71747,-0.05624 0.74261,-0.05802c0.38318,-0.02713 0.75189,-0.10276 1.13217,-0.14806c0.47812,-0.05926 1.35455,-0.22023 1.72359,0.21248c0.22516,0.26401 0.04389,0.76208 0.09208,1.06881c0.03395,0.21611 0.27925,0.54171 0.22059,0.759c-0.05868,0.21739 -0.35711,0.36425 -0.52714,0.4653c-0.72091,0.42848 -1.43994,0.52667 -2.26743,0.60042c-0.40132,0.08763 -0.91925,-0.06922 -1.29573,0.08696c-0.21153,0.08775 -0.45786,0.26001 -0.61935,0.42287c-0.06639,0.06695 -0.37417,0.43977 -0.43764,0.467c-0.12005,0.05151 -0.26081,0.01632 -0.3914,0.02014c-0.42828,0.01251 -0.84335,-0.0166 -1.26505,-0.05081c-0.44234,-0.03589 -0.79356,0.08034 -1.21796,0.12369c-0.24028,0.02454 -0.48647,0.00877 -0.72184,0.06296c-0.2393,0.11551 -0.28314,0.32694 -0.50464,0.45192c-0.35062,0.19784 -0.89098,0.18504 -1.27735,0.23785c-0.67951,0.09286 -1.37723,0.30427 -2.06268,0.08459c-0.25198,-0.08076 -0.5287,-0.28885 -0.80499,-0.31499c-0.38559,-0.03647 -0.78425,0.04554 -1.16919,-0.0001c-0.29863,-0.03541 -0.58511,-0.1211 -0.88758,-0.14843c-0.57512,-0.04129 -1.27885,-0.06309 -1.83312,-0.23157c-0.19797,-0.06018 -0.35721,-0.21846 -0.5559,-0.27621c-0.56237,-0.16345 -1.14514,-0.29047 -1.70937,-0.45945c-0.96448,-0.28884 -1.83199,-0.74665 -2.85267,-0.74735c-0.15046,-0.01262 -0.48847,-0.02687 -0.63126,-0.09482c-0.46217,-0.21993 -0.52541,-0.73564 -0.87461,-1.02935c-0.16528,-0.13901 -0.35702,-0.29912 -0.39815,-0.51114c-0.06831,-0.35212 0.0331,-0.69157 0.18207,-1.00008z" fill="#e37128" stroke="none" stroke-linecap="butt"/><path d="M42.32121,121.26545c0.06604,-0.05521 0.15427,-0.05521 0.15427,-0.05521l0.02283,0.00664c0.04655,-0.0101 0.15056,-0.0205 0.22062,0.06418l0.02706,0.00787c0.06424,0.08404 0.16548,0.14991 0.19272,0.25212c0.10783,0.40466 -0.20336,0.90725 -0.48959,1.15846c-0.80368,0.70536 -1.8907,0.86076 -2.82447,1.2957c-0.24567,0.15411 -0.5134,0.3376 -0.80263,0.39604c-0.14646,0.02959 -0.30104,-0.00565 -0.44766,0.02316c-0.30192,0.05931 -0.61667,0.224 -0.91907,0.29814c-0.37774,0.0926 -0.79318,0.08142 -1.1777,0.1511c-0.22154,0.04015 -0.4324,0.1258 -0.64726,0.19305c-0.50142,0.15695 -1.05997,0.14505 -1.56999,0.29288c-0.5082,0.1473 -0.9668,0.31017 -1.48898,0.428c-0.53718,0.06709 -1.03251,0.2801 -1.55982,0.3553c-0.69395,0.09897 -1.47393,0.00226 -2.176,0.00226c-1.16688,0 -2.2733,0.00441 -3.4196,-0.17793c-0.4222,-0.06716 -0.71937,-0.03629 -1.12993,-0.18082c-0.42543,-0.12112 -0.87171,-0.18926 -1.28372,-0.35381c-0.61906,-0.24725 -1.18464,-0.64824 -1.8061,-0.89161c-0.23952,-0.0938 -0.56613,-0.20375 -0.82355,-0.23723c-0.24259,-0.03156 -0.33633,0.06049 -0.57566,-0.07552c-0.36889,-0.20965 -0.51666,-0.82322 -0.70997,-1.1818c-0.04943,-0.0917 -0.14911,-0.17251 -0.14544,-0.27662c0.00067,-0.01899 0.00226,-0.03782 0.00464,-0.05652h-0.01185v-0.29828c0,-0.04067 0.01077,-0.07882 0.02962,-0.11175c-0.2021,-0.28158 -0.39512,-0.6076 -0.11185,-0.89c0.19571,-0.19512 0.68351,0.1561 0.87298,0.2153c0.30087,0.09401 0.63345,0.23123 0.95059,0.26418c0.44247,0.04597 0.89359,0.00644 1.33996,0.05335c0.82588,0.27156 1.67888,0.38477 2.51495,0.61953c0.96577,0.27118 1.90861,0.66374 2.91112,0.79427c0.48427,0.06306 0.97503,0.04777 1.46187,0.04777c0.62506,0 1.29471,0.06307 1.91522,-0.02436c1.29294,-0.18217 2.59115,-0.3664 3.88813,-0.54411c0.50862,-0.06969 1.0094,-0.24687 1.5229,-0.29932c0.41691,-0.07602 0.87105,-0.06462 1.27625,-0.14623c0.09302,-0.01874 0.16649,-0.09516 0.25797,-0.12036c0.39504,-0.10883 0.86866,-0.14317 1.27408,-0.20562c0.52882,-0.08145 1.08993,-0.08426 1.60569,-0.24072c0.39311,-0.11925 0.76172,-0.3862 1.16647,-0.47812c0.16721,-0.03797 0.34319,-0.03999 0.51088,-0.07336z" fill="#e37128" stroke="none" stroke-linecap="butt"/><path d="M34.75864,127.12071c-0.04024,-0.13516 0.08327,-0.23221 0.08327,-0.23221c0.29268,-0.22981 0.51514,-0.43462 0.76845,-0.70021c0.04837,-0.05071 0.32643,-0.41358 0.34702,-0.42538c0.37491,-0.21484 1.02277,-0.13739 1.43579,-0.13739c0.07953,0 0.65577,-0.01132 0.73468,0.03365c0.15193,0.08659 0.17676,0.31391 0.31762,0.41755c0.09731,0.0716 0.4994,0.24537 0.52834,0.33737c0.09965,0.31669 -0.19534,0.6064 -0.3518,0.81421c-0.53508,0.57861 -1.37938,1.27695 -2.16844,1.44879c-0.58484,0.12736 -1.33035,0.07252 -1.8294,-0.23539c-0.11427,-0.0705 -0.28786,-0.08378 -0.34717,-0.20424c-0.20747,-0.42138 0.22419,-0.82035 0.48163,-1.11676z" fill="#e32929" stroke="none" stroke-linecap="butt"/><path d="M22.62357,128.29107c-0.02027,-0.03142 -0.03367,-0.07297 -0.03367,-0.12793c0,-0.22534 0.22534,-0.22534 0.22534,-0.22534c2.08451,0 4.19984,-0.03938 6.25236,0.34247c0.43772,-0.01013 0.87897,-0.01874 1.30769,0.02861c0.33425,0.03692 0.62006,0.1325 0.94271,0.21596c0.34657,0.08964 0.71187,0.07952 1.065,0.12118c1.00342,0.1543 1.99846,0.13062 3.01012,0.08431c0.3616,-0.01655 0.7681,0.04502 1.12455,-0.03028c0.41614,-0.08791 0.84007,-0.25123 1.24679,-0.38173c0.05208,-0.01671 0.52803,-0.15227 0.56098,-0.14873c0.00641,0.00069 0.0128,0.00148 0.01917,0.00237l-0.00035,-0.00461l0.22642,-0.01742c0.00651,-0.00057 0.01309,-0.00085 0.01975,-0.00085c0.12445,0 0.22534,0.10089 0.22534,0.22534c0,0.10137 -0.06693,0.1871 -0.15901,0.21542l-0.24014,0.08005c-0.00684,0.00424 -0.01371,0.00842 -0.02062,0.01255c-0.0182,0.06723 -0.58796,0.63044 -0.9154,0.67066c-0.19484,0.19386 -0.44182,0.33447 -0.72673,0.43711c-0.0424,0.06656 -0.09373,0.12134 -0.15014,0.15504c-0.10187,0.06086 -0.23636,0.02263 -0.35492,0.02781c-0.26233,0.01146 -0.52967,0 -0.79228,0c-0.97126,0 -1.95183,0.0562 -2.9214,-0.0006c-0.99251,-0.08678 -1.97943,-0.08743 -2.97668,-0.08743c-0.40059,0 -0.82401,0.04531 -1.22056,-0.00121c-0.99894,-0.1172 -1.98861,-0.35367 -2.98828,-0.45377c-0.41644,-0.05763 -0.91362,-0.07761 -1.31094,-0.22853c-0.23615,-0.0897 -0.62339,-0.2734 -0.94775,-0.49635c-0.24765,-0.17022 -0.47656,-0.39916 -0.46732,-0.41407z" fill="#e37128" stroke="none" stroke-linecap="butt"/><g stroke="#000000" stroke-linecap="butt"><path d="M23.55878,118.61278c0,-1.94918 1.58012,-3.5293 3.52931,-3.5293c1.94918,0 3.5293,1.58012 3.5293,3.5293c0,1.94918 -1.58012,3.5293 -3.5293,3.5293c-1.94918,0 -3.52931,-1.58012 -3.52931,-3.5293z" fill="#ffffff"/><path d="M27.55422,118.61278c0,-0.82135 0.66584,-1.4872 1.4872,-1.4872c0.82135,0 1.4872,0.66584 1.4872,1.4872c0,0.82135 -0.66584,1.4872 -1.4872,1.4872c-0.82135,0 -1.4872,-0.66584 -1.4872,-1.4872z" fill="#000000"/></g><path d="M27.20081,123.90794c0,0 -0.79593,0.35052 -1.50993,0.35052c-0.68704,0 -1.29423,-1.07852 -1.29423,-1.07852" fill="none" stroke="#000000" stroke-linecap="round"/><g data-paper-data="{&quot;index&quot;:null}" stroke="#000000" stroke-linecap="butt"><path d="M34.77296,122.00805c-1.94918,0 -3.5293,-1.58012 -3.5293,-3.5293c0,-1.94918 1.58012,-3.5293 3.5293,-3.5293c1.94919,0 3.52931,1.58012 3.52931,3.5293c0,1.94918 -1.58012,3.5293 -3.52931,3.5293z" fill="#ffffff"/><path d="M32.81963,119.96594c-0.82135,0 -1.48719,-0.66584 -1.48719,-1.48719c0,-0.82136 0.66584,-1.4872 1.48719,-1.4872c0.82135,0 1.48719,0.66584 1.48719,1.4872c0,0.82136 -0.66584,1.48719 -1.48719,1.48719z" fill="#000000"/></g></g><path d="M491.16041,175.3801c0,137.65498 -112.67221,249.24639 -251.66041,249.24639c-138.9882,0 -251.66041,-111.59143 -251.66041,-249.24639c0,-137.65498 112.67221,-249.24639 251.66041,-249.24639c138.9882,0 251.66041,111.59143 251.66041,249.24639z" fill="none" stroke="#ffffff" stroke-width="4" stroke-linecap="butt"/><g stroke-width="1"><g stroke-linecap="butt"><path d="M468.6223,255.68883c0,-5.76817 4.67602,-10.44419 10.44419,-10.44419c5.76817,0 10.44419,4.67602 10.44419,10.44419c0,5.76817 -4.67602,10.44419 -10.44419,10.44419c-5.76817,0 -10.44419,-4.67602 -10.44419,-10.44419z" fill="#dfe079" stroke="#000000"/><path d="M474.44667,246.46337c-0.0186,-0.16741 0.14881,-0.18601 0.14881,-0.18601c0.50591,-0.04993 0.92155,-0.34981 1.39817,-0.49067c0.21473,-0.06346 0.76468,-0.22808 0.97858,-0.27929c0.48566,-0.11628 0.67292,0.02593 1.14826,-0.13279c0.4175,-0.15035 0.93849,-0.0718 1.38184,-0.0718c0.35902,0 0.51428,0.0917 0.8733,0.0917c0.00598,0 1.13855,0.13167 1.35808,0.20805c0.44565,0.15506 1.00764,0.38424 1.45472,0.53885c0.27814,0.23702 0.43145,0.25848 0.75822,0.42244c0.32161,0.16137 0.74112,0.34279 1.0621,0.51957c0.67786,0.37333 1.25352,0.97548 1.75143,1.5566c0.11662,0.16552 0.25196,0.27634 0.36235,0.44956l0.05405,0.07106c0,0 0.08693,0.11591 -0.00796,0.21335c-0.00411,0.08059 -0.06488,0.14623 -0.14326,0.15787l-0.24582,0.04097l-0.00032,-0.00192l-0.00652,0.00291c-0.33011,0.02504 -0.70388,0.13739 -1.01399,0.25825c-0.22631,0.08819 -0.20785,0.1459 -0.46897,0.19618c-0.20079,0.03866 -0.47618,0.00251 -0.67972,0.00235c-0.71352,-0.07067 -1.4167,-0.17747 -2.12963,-0.29168c-0.30779,-0.04931 -0.62588,-0.03455 -0.93387,-0.08313c-0.20512,-0.03235 -0.39996,-0.11785 -0.60581,-0.14517c-0.32561,-0.04321 -0.3409,0.03051 -0.67879,-0.0206c-0.0944,-0.01428 -0.18032,-0.06489 -0.27393,-0.08369c-0.51005,-0.10241 -1.06587,-0.10956 -1.58421,-0.17439c-0.56066,-0.0566 -1.12342,-0.10098 -1.68034,-0.18751c-0.21005,-0.03263 -0.42829,-0.03917 -0.61253,-0.1636c-0.13192,-0.0891 -0.21206,-0.23748 -0.31782,-0.35646c-0.52581,-0.59152 -0.8017,-1.31076 -1.27082,-1.93512c-0.03566,-0.02027 -0.06802,-0.05761 -0.07561,-0.12591z" fill="#a8e079" stroke="none"/><path d="M483.97022,253.55391c-0.01728,0.16755 -0.18483,0.15026 -0.18483,0.15026l-0.25585,-0.02716c-0.42582,-0.12746 -0.84037,-0.23554 -1.27621,-0.32271c0,0 -0.09673,-0.01935 -0.12734,-0.10246c-0.03629,0.01213 -0.06777,0.01081 -0.06777,0.01081l-0.08499,-0.00354c-1.06733,-0.04447 -2.13813,-0.12061 -3.18183,-0.36102c-0.84657,-0.19536 -1.71263,-0.36856 -2.53424,-0.65674c-0.48338,-0.16954 -0.92068,-0.46882 -1.40211,-0.64361c-0.21137,-0.07674 -0.43917,-0.1016 -0.65082,-0.17757c-0.29724,-0.1067 -0.58801,-0.27708 -0.86997,-0.41804c0,0 -0.15065,-0.07533 -0.07533,-0.22598c0.07533,-0.15065 0.22598,-0.07533 0.22598,-0.07533c0.27076,0.13539 0.55033,0.30108 0.83589,0.40329c0.21118,0.07559 0.43837,0.10043 0.6492,0.17698c0.48224,0.17508 0.92035,0.47568 1.40456,0.64451c0.80852,0.28191 1.65998,0.4521 2.49258,0.64424c1.02299,0.23653 2.07385,0.30909 3.1201,0.35268l0.08499,0.00354c0,0 0.1174,0.00489 0.152,0.10456c0.04861,-0.01597 0.09515,-0.00666 0.09515,-0.00666c0.43576,0.08715 0.85124,0.19339 1.27638,0.32275l0.22419,0.02236c0,0 0.16755,0.01728 0.15026,0.18483z" fill="#fbfd89" stroke="none"/><path d="M485.23462,256.16398c-0.0054,0.16835 -0.17375,0.16295 -0.17375,0.16295l-0.15931,-0.00536c-1.88547,-0.16395 -3.75975,-0.55626 -5.6252,-0.87137c-1.44667,-0.24437 -2.88937,-0.54673 -4.28032,-1.02824c-0.5073,-0.17561 -1.00038,-0.42534 -1.49446,-0.63559c0,0 -0.15499,-0.06595 -0.08904,-0.22094c0.06595,-0.15499 0.22094,-0.08904 0.22094,-0.08904c0.48756,0.20747 0.97434,0.45498 1.475,0.62801c1.37311,0.47456 2.79614,0.77243 4.22399,1.01362c1.85645,0.3136 3.7219,0.70477 5.59827,0.86794l0.14093,0.00427c0,0 0.16835,0.0054 0.16295,0.17375z" fill="#fbfd89" stroke="none"/><path d="M481.34914,265.31997c0,0.16844 -0.16844,0.16844 -0.16844,0.16844l-0.0799,-0.00083c-0.72905,-0.07275 -1.4428,-0.19489 -2.1558,-0.36269c-0.86677,-0.20398 -1.79407,-0.35714 -2.63296,-0.65755c-1.02124,-0.36572 -1.97147,-0.96595 -2.96882,-1.39338c0,0 -0.15482,-0.06635 -0.08847,-0.22117c0.06635,-0.15482 0.22117,-0.08847 0.22117,-0.08847c0.99068,0.42458 1.93542,1.02264 2.94969,1.38586c0.82669,0.29605 1.74227,0.44575 2.59655,0.64679c0.6986,0.1644 1.39775,0.28412 2.11208,0.3554l0.04646,-0.00083c0,0 0.16844,0 0.16844,0.16844z" fill="#fbfd89" stroke="none"/><path d="M483.84475,258.21223c0,0.16844 -0.16844,0.16844 -0.16844,0.16844h-0.03159c-1.01425,0 -1.99309,-0.13379 -2.99443,-0.28617c-0.4347,-0.06422 -0.89086,-0.0966 -1.3188,-0.19539c-0.43759,-0.10101 -0.86359,-0.28232 -1.29435,-0.40987c-0.53347,-0.15797 -1.10798,-0.24878 -1.6272,-0.44792c-0.47618,-0.18263 -0.96515,-0.52383 -1.38793,-0.80546c0,0 -0.14015,-0.09343 -0.04672,-0.23358c0.09343,-0.14015 0.23358,-0.04672 0.23358,-0.04672c0.40329,0.26908 0.8742,0.60154 1.3288,0.77404c0.50925,0.19324 1.07227,0.28182 1.59498,0.43659c0.4241,0.12558 0.84385,0.30524 1.27461,0.40468c0.41933,0.0968 0.867,0.12754 1.29299,0.19048c0.98479,0.14986 1.94705,0.28245 2.94447,0.28245h0.03159c0,0 0.16844,0 0.16844,0.16844z" fill="#fbfd89" stroke="none"/></g><g stroke="#000000"><g><g stroke-linecap="butt"><path d="M471.64491,255.1676c0,-1.86506 1.51193,-3.37699 3.37699,-3.37699c1.86506,0 3.37699,1.51193 3.37699,3.37699c0,1.86506 -1.51193,3.37699 -3.37699,3.37699c-1.86506,0 -3.37699,-1.51193 -3.37699,-3.37699z" fill="#ffffff"/><path d="M475.53135,255.07229c0,-0.7859 0.6371,-1.42301 1.42301,-1.42301c0.7859,0 1.42301,0.6371 1.42301,1.42301c0,0.7859 -0.6371,1.42301 -1.42301,1.42301c-0.7859,0 -1.42301,-0.6371 -1.42301,-1.42301z" fill="#000000"/></g><path d="M471.57768,251.48922l1.20117,1.20117" fill="none" stroke-linecap="round"/></g><g data-paper-data="{&quot;index&quot;:null}"><g fill="#ffffff" stroke-linecap="butt"><path d="M482.39853,258.69819c-1.86506,0 -3.37699,-1.51193 -3.37699,-3.37699c0,-1.86506 1.36497,-3.46541 3.23003,-3.46541c1.86506,0 3.52395,1.60035 3.52395,3.46541c0,1.86506 -1.51193,3.37699 -3.37699,3.37699z"/></g><path d="M485.35413,253.72184l1.20117,-1.20117" fill="none" stroke-linecap="round"/></g><path d="M484.89865,258.99058c0,0 -0.66437,0.61517 -1.36708,0.85755c-0.67619,0.23323 -1.63989,-0.62213 -1.63989,-0.62213" data-paper-data="{&quot;index&quot;:null}" fill="none" stroke-linecap="round"/><path d="M479.08052,255.19191c0,-0.7859 0.6371,-1.42301 1.42301,-1.42301c0.7859,0 1.42301,0.6371 1.42301,1.42301c0,0.7859 -0.6371,1.42301 -1.42301,1.42301c-0.78591,0 -1.42301,-0.6371 -1.42301,-1.42301z" fill="#000000" stroke-linecap="butt"/></g><path d="M461.33054,254.33696c0.11105,0.02637 0.22062,0.05531 0.32936,0.08597c0.13423,0.02425 0.27041,0.04557 0.41206,0.05844c0.88137,0.08071 1.77269,0.04234 2.64173,0.22453c1.17177,0.24565 2.33507,0.5737 3.48414,0.91842c0,0 0.06976,0.02093 0.11664,0.0789c0.48663,0.13597 0.973,0.27342 1.46064,0.41368c0.29859,0.03912 0.48768,0.16686 0.77087,0.23086c0.31434,0.07104 0.66339,0.13188 0.96885,0.23291c0.10631,0.03516 0.19352,0.11692 0.30038,0.15037c0.09712,0.0304 0.2042,0.01352 0.30286,0.03845c0.56132,0.1418 1.14978,0.34513 1.68197,0.56816c0.20025,0.08393 0.38506,0.20378 0.58921,0.27772c0.30737,0.11133 0.52522,0.2028 0.80691,0.3909c0.70355,0.31433 1.40617,0.67835 2.13508,0.93038c0.52341,0.18097 1.07436,0.25501 1.60604,0.39926c0.19409,0.05266 0.3771,0.14265 0.57233,0.19092c0.32685,0.08082 0.67523,0.09159 0.99881,0.18535c0.42931,0.12439 0.83944,0.3097 1.27315,0.43192c0.48099,0.13563 0.95565,0.33974 1.43982,0.45429c0.74822,0.17702 1.52414,0.28803 2.28688,0.41903c0.3251,0.05583 0.64448,0.16639 0.97417,0.18879c0.227,0.01542 0.456,0.00541 0.68171,0.03407c0.37309,0.04738 0.71835,0.15729 1.09081,0.19036c0.38708,0.09182 0.77794,0.18046 1.16824,0.24759c0.38592,0.06637 0.79047,0.03369 1.17671,0.10483c0.25135,0.0463 0.51056,0.15212 0.76206,0.19089c0.30104,0.0464 0.61693,0.00049 0.919,0.07799c0.09688,0.02486 0.17979,0.09205 0.27715,0.115c0.13153,0.03101 0.2709,-0.0155 0.40539,-0.00233c0.36244,0.03548 0.71884,0.03747 1.08614,0.03747c0.76844,0 1.53689,0 2.30533,0c0.43032,0 0.92364,0.07413 1.34669,0.00304c0.1617,-0.02717 0.17712,-0.11449 0.30245,-0.22816c0.21293,-0.19312 0.40593,-0.33649 0.53607,-0.6008c0.05806,-0.11611 0.14911,-0.21978 0.17819,-0.3463c0.03428,-0.14915 -0.00451,-0.30606 -0.00451,-0.45911c0,-0.33174 0.06477,-0.77183 -0.06525,-1.08805c-0.02864,-0.06966 -0.09016,-0.1232 -0.11584,-0.19401c-0.02522,-0.06954 -0.00348,-0.15191 -0.03403,-0.21928c-0.03131,-0.06905 -0.10572,-0.11042 -0.1449,-0.17533c-0.19135,-0.317 -0.40096,-0.56846 -0.63571,-0.85875c-0.21653,-0.26776 -0.31278,-0.54179 -0.56324,-0.79183c-0.3416,-0.3416 -0.65214,-0.76861 -1.04582,-1.05068c-0.11287,-0.08087 -0.26405,-0.08658 -0.39296,-0.13817c-0.42657,-0.17072 -0.8655,-0.37298 -1.30966,-0.48843c-0.16468,-0.0428 -0.34073,0.01483 -0.51044,0.00268c-0.44052,-0.03154 -0.87305,-0.15613 -1.30764,-0.22957c-0.62776,0.00123 -1.38509,-0.09531 -1.99113,-0.27573c-0.29876,-0.08894 -0.59182,-0.24248 -0.89997,-0.30136l-0.17528,-0.1016c0,0 -0.14015,-0.09343 -0.04672,-0.23358c0.01031,-0.01547 0.0212,-0.0281 0.0324,-0.03831c-0.00062,-0.00679 -0.00062,-0.0108 -0.00062,-0.0108c0,-0.07045 0.00536,-0.15196 0.01167,-0.23812c-0.03412,-0.04795 -0.03412,-0.10605 -0.03412,-0.10605v0v-0.15795c0,-0.14687 0.00044,-0.30218 -0.00209,-0.46106c-0.06042,-0.12846 -0.16044,-0.21802 -0.15169,-0.39274l-0.08685,-0.0579c-0.042,-0.02713 -0.07116,-0.07243 -0.07635,-0.12478c-0.03052,-0.04683 -0.03052,-0.10076 -0.03052,-0.10076c0,-0.02849 -0.00062,-0.0586 -0.00152,-0.08998c-0.07189,-0.01921 -0.12484,-0.08479 -0.12484,-0.16274c0,-0.00908 0.00072,-0.018 0.0021,-0.02669l0.03094,-0.21658c-0.05003,-0.05372 -0.07959,-0.12973 -0.15302,-0.21881c-0.18662,-0.22637 -0.61789,-0.58617 0.03315,-0.65403c0.27473,-0.02864 0.41246,0.12532 0.58284,0.26905c0.32587,-0.08126 0.79165,0.22181 1.04833,0.32187c0.92999,0.36255 1.89469,0.59271 2.86642,0.83564c1.37606,0.34402 2.71437,0.77845 4.07038,1.18737c0.7446,0.22455 1.48736,0.40405 2.18732,0.75237c0.96967,0.48552 1.79995,1.20012 2.43169,2.07552c0.15534,0.21525 0.43109,0.47925 0.5489,0.71457c0.05179,0.10344 0.04202,0.22924 0.08617,0.33616c0.03272,0.07924 0.11176,0.13439 0.14138,0.21484c0.09226,0.25054 0.04128,0.42099 0.17579,0.63665c0.02204,0.05972 0.0754,0.16105 0.10781,0.25706c0.14421,0.12588 0.2885,0.25274 0.3964,0.41173c0.18286,0.26947 0.31358,0.57547 0.44117,0.87307c0.15978,0.3261 0.32466,0.67857 0.41236,1.03241c0.02157,0.08702 0.00662,0.18277 0.03999,0.26598c0.03291,0.08206 0.13616,0.12964 0.15346,0.21634c0.07654,0.3837 -0.11309,0.83787 -0.24855,1.17475c-0.26616,0.66194 -0.34291,1.37797 -0.74943,1.98169c-0.12669,0.18814 -0.3798,0.38022 -0.53972,0.53415c-0.22086,0.05807 -0.42308,0.17213 -0.63308,0.26187c-0.08798,0.0376 -0.19705,0.01999 -0.27817,0.07071c-0.06861,0.0429 -0.076,0.15295 -0.14558,0.19426c-0.07753,0.04603 -0.53522,0.1635 -0.66174,0.17464c-0.10276,0.00905 -0.20943,-0.03043 -0.30944,-0.00511c-0.09252,0.02342 -0.15532,0.11733 -0.2464,0.14582c-0.3241,0.10137 -0.82421,0.00598 -1.16242,0.00598c-0.82631,0 -1.65262,0 -2.47893,0c-0.8693,0 -1.7386,0 -2.6079,0c-0.44657,0 -0.92072,0.04425 -1.36473,-0.00088c-0.31002,-0.03152 -0.67863,-0.06814 -0.98054,-0.15076c-0.27724,-0.07587 -0.54184,-0.2298 -0.82253,-0.29066c-0.21937,-0.04757 -0.44306,-0.07505 -0.66093,-0.1291c-0.28236,-0.07027 -0.57632,-0.13013 -0.85415,-0.2134c-0.26337,-0.07894 -0.24845,-0.13109 -0.52352,-0.19149c-0.42457,-0.09323 -0.85611,-0.16918 -1.27552,-0.29475c-0.29219,-0.08749 -0.5784,-0.20583 -0.87281,-0.29101c-0.37091,-0.10732 -0.77004,-0.15744 -1.13115,-0.29607c-0.06078,-0.02333 -0.11003,-0.07413 -0.17301,-0.09063c-0.13159,-0.03447 -0.27232,0.01299 -0.40807,0.00425c-0.20088,-0.01293 -0.48364,-0.0583 -0.68321,-0.08748c-0.38848,-0.05683 -0.7838,-0.16463 -1.17201,-0.20481c-0.0715,-0.0074 -0.14586,0.01372 -0.21563,-0.0036c-0.33511,-0.08314 -0.66148,-0.2312 -1.01249,-0.28991c-0.44203,-0.07393 -0.92951,-0.06872 -1.35973,-0.19721c-0.06649,-0.01986 -0.11644,-0.07691 -0.18027,-0.10415c-0.20074,-0.08567 -0.25947,0.00826 -0.5156,-0.04309c-0.0582,-0.01167 -0.09124,-0.08439 -0.14919,-0.09721c-0.08602,-0.01904 -0.17656,0.01425 -0.26426,0.00571c-0.27697,-0.02698 -0.56636,-0.1392 -0.83957,-0.1966c-0.30131,-0.06037 -0.60836,-0.07862 -0.90929,-0.13734c-0.19773,-0.03858 -0.3847,-0.12974 -0.58491,-0.15221c-0.21204,-0.0238 -0.42765,-0.01484 -0.63818,-0.04953c-0.39997,-0.06589 -0.80091,-0.20353 -1.20203,-0.24138c-0.27908,-0.02634 -0.56549,-0.0482 -0.84038,-0.09902c-0.1033,-0.0191 -0.19658,-0.07668 -0.2993,-0.09871c-0.2614,-0.05608 -0.55272,-0.04362 -0.80437,-0.15404c-0.27318,-0.11987 -0.38609,-0.16803 -0.66777,-0.2385c-0.19934,-0.07512 -0.40533,-0.14253 -0.617,-0.16652c-0.21151,-0.02397 -0.36601,0.00223 -0.56134,-0.08066c-0.30998,-0.13156 -0.57819,-0.3715 -0.88154,-0.50597c-0.35472,-0.15724 -0.77835,-0.15064 -1.14525,-0.26671c-0.32479,-0.10275 -0.63697,-0.25226 -0.95243,-0.37919c-0.14129,-0.05685 -0.30421,-0.05279 -0.44085,-0.12007c-0.05702,-0.02807 -0.07274,-0.11287 -0.1308,-0.13871c-0.04791,-0.02132 -0.10553,0.02093 -0.15695,0.01065c-0.29559,-0.05912 -0.52273,-0.23262 -0.81593,-0.29028c-0.37476,0 -0.69746,-0.12788 -1.06311,-0.17979c-0.30556,-0.04337 -0.56494,-0.076 -0.86453,-0.1668c-0.28744,-0.08712 -0.60658,-0.23728 -0.90191,-0.28665c-0.10455,-0.01748 -0.21636,0.02388 -0.31792,-0.00647c-0.08129,-0.02429 -0.126,-0.12071 -0.20562,-0.15c-0.09851,-0.03623 -0.21082,-0.01357 -0.31228,-0.04047c-0.28452,-0.07544 -0.51956,-0.25299 -0.7933,-0.34382c-0.09354,-0.03104 -0.19822,-0.01719 -0.29164,-0.04861c-0.33407,-0.11234 -0.66968,-0.33236 -0.9845,-0.49063c-0.34359,-0.1177 -0.55377,-0.31757 -0.85755,-0.51127c-0.2085,-0.13295 -0.42414,-0.25007 -0.63502,-0.37531c-0.00411,0.21225 -0.21842,0.21225 -0.21842,0.21225c-0.02068,-0.00011 -0.0412,-0.0005 -0.06156,-0.00116c-0.0358,0.00497 -0.06645,0.00248 -0.09266,-0.00495c-0.82204,-0.06115 -1.39795,-0.56372 -2.16446,-0.82697c-1.24723,-0.42834 -2.47337,-0.84861 -3.61658,-1.52719c-0.13723,-0.08425 -0.28838,-0.14917 -0.41168,-0.25274c-0.66277,-0.55672 -0.51413,-1.41059 -0.51391,-2.17748c0.00013,-0.47276 0.09094,-0.88521 0.17736,-1.33966c0.09483,-0.49869 0.05519,-1.01352 0.17283,-1.51101c0.13884,-0.58714 0.49507,-1.17879 0.76568,-1.71444c0.30268,-0.3421 0.62987,-0.6556 1.00553,-0.91983c0.20246,-0.14241 0.48365,-0.27299 0.65992,-0.44927c0.24792,-0.24792 0.31467,-0.50991 0.70814,-0.61887c0.08314,-0.02302 0.17507,0.02079 0.25879,0c0.08675,-0.02155 0.15396,-0.09319 0.23809,-0.12342c0.25125,-0.09026 0.5329,-0.06303 0.78841,-0.13314c0.2984,-0.08188 0.61167,-0.16077 0.92235,-0.20688c0.4961,-0.07363 1.05218,-0.01686 1.55192,-0.01686c0.58559,0 1.10895,-0.01763 1.67959,-0.12456c0.00884,-0.00166 0.34759,-0.04305 0.59057,-0.05515c0.06995,-0.01834 0.14114,-0.03242 0.21445,-0.03952c0.63857,-0.06186 1.31597,-0.00126 1.9581,-0.00126c0.62021,0 1.30805,-0.07994 1.92297,0.00126c0.14781,0.01952 0.27753,0.11007 0.42036,0.15281c0.20498,0.06135 0.41753,0.1012 0.6153,0.18287c0.19472,0.08181 0.2643,0.13107 0.46716,0.14993c0.16025,0.0149 0.32941,-0.00036 0.4793,0.05825c0.03784,0.01479 0.40985,0.21531 0.50779,0.23555c0.0658,0.0136 0.13726,-0.01797 0.20157,0.00152c0.31477,0.09542 0.60428,0.31623 0.91306,0.43524c0.04885,0.01883 0.59054,0.1903 0.63309,0.21131c0.07268,0.03589 0.1223,0.10914 0.19456,0.14589c0.16509,0.08396 0.37324,0.05807 0.53598,0.14651c0.08245,0.04481 0.11868,0.15158 0.20037,0.19776c0.10851,0.06135 0.27125,0.02444 0.35537,0.11643c0.41826,0.4574 -0.28335,0.64817 -0.5868,0.70109c-0.13726,0.23243 -0.30956,0.22611 -0.52023,0.37744c-0.19449,0.13971 -0.21705,0.47224 -0.29461,0.66356c-0.0396,0.09767 -0.10706,0.18158 -0.16059,0.27237l-0.0994,0.14918c0,0 -0.08511,0.12766 -0.21471,0.05807c-0.0217,0.001 -0.03667,-0.00149 -0.03667,-0.00149c-0.76703,-0.12784 -1.49422,-0.41961 -2.26726,-0.52337c-0.22594,-0.07882 -0.5135,-0.12327 -0.803,-0.16566c-0.15161,-0.07965 -0.32423,-0.12472 -0.50737,-0.12472c-0.05333,0 -0.10577,0.00382 -0.15706,0.01121c-0.14689,-0.03434 -0.27864,-0.07653 -0.38382,-0.13277c-0.91675,-0.4902 -2.00905,-0.5061 -3.02059,-0.47727c-0.42982,0.01225 -0.86008,0.17702 -1.28968,0.18911c-0.00263,0.00007 -0.00527,0.00015 -0.00792,0.00022c0.00404,0.02246 0.00404,0.03773 0.00404,0.03773l-0.07861,0.21097c-0.13774,0.11435 -0.36065,0.32466 -0.54303,0.38374c-0.3893,0.12611 -0.77943,0.10761 -1.15225,0.29725c-0.20535,0.06865 -0.56731,0.20205 -0.79016,0.23065c-0.44736,0.05742 -1.03548,-0.07349 -1.46322,0.07531c-0.08393,0.0292 -0.14416,0.11278 -0.23044,0.13406c-0.23551,0.05809 -0.52215,-0.02223 -0.75754,0.08011c-0.88507,0.38482 -1.47675,1.22726 -0.92963,2.13435c0.15607,0.21926 0.34692,0.50509 0.5325,0.69855c0.19754,0.20593 0.5048,0.17739 0.73675,0.3137c0.06636,0.03899 0.09466,0.12631 0.16076,0.16575c0.12546,0.07487 0.29306,0.02658 0.4328,0.06923c0.21852,0.06669 0.43218,0.14855 0.65026,0.21665c0.81258,0.25374 1.52645,0.50857 2.39383,0.50778c0,0 0.07833,0 0.14118,0.0469c0.09875,0.02496 0.19659,0.07235 0.2953,0.09579zM467.9492,256.00604c0.01408,0.00573 0.02817,0.01149 0.04227,0.01728c0.00073,-0.00134 0.00145,-0.00268 0.00217,-0.00403c-0.01481,-0.00442 -0.02963,-0.00884 -0.04444,-0.01326z" fill="#887965" stroke="none" stroke-linecap="butt"/></g><path d="M520.66041,180c0,153.5176 -125.65595,277.96821 -280.66041,277.96821c-155.00446,0 -280.66041,-124.45063 -280.66041,-277.96821c0,-153.5176 125.65595,-277.96821 280.66041,-277.96821c155.00446,0 280.66041,124.45063 280.66041,277.96821z" fill="none" stroke="#ffffff" stroke-width="4" stroke-linecap="butt"/><g stroke-width="1"><g stroke-linecap="butt"><path d="M240.93831,453.26579c0,-3.16369 2.56467,-5.72836 5.72836,-5.72836c3.16369,0 5.72836,2.56467 5.72836,5.72836c0,3.16369 -2.56467,5.72836 -5.72836,5.72836c-3.16369,0 -5.72836,-2.56467 -5.72836,-5.72836z" fill="#88ffff" stroke="#5cadad"/><path d="M242.85645,457.44152l-0.05989,-0.06301c-0.21151,-0.14907 -0.31569,-0.32338 -0.47746,-0.51478c-0.18972,-0.22446 -0.34474,-0.43997 -0.49103,-0.696c-0.08625,-0.15095 -0.21358,-0.30636 -0.27393,-0.46985c-0.03241,-0.08781 -0.03961,-0.1863 -0.0421,-0.28461c-0.05605,-0.0201 -0.08408,-0.07616 -0.08408,-0.07616l-0.03944,-0.09189c-0.09648,-0.53352 -0.35539,-1.03523 -0.39892,-1.57322c0.04133,-0.47278 0.00626,-0.94917 0.06728,-1.41925c0.03119,-0.24027 0.12082,-0.44289 0.19012,-0.67133c0.06429,-0.21192 0.11204,-0.45183 0.20535,-0.65315c0.09216,-0.19883 0.28167,-0.3678 0.42679,-0.53042c0.05576,-0.08053 0.07345,-0.18164 0.11311,-0.2712c0.09332,-0.21074 0.30022,-0.38013 0.44606,-0.55331c0.14389,-0.17086 0.27205,-0.3831 0.43908,-0.53181c0.13078,-0.11644 0.31581,-0.18387 0.45382,-0.29445c0.24867,-0.19925 0.44937,-0.41177 0.75487,-0.52535c0,0 0.01182,-0.0043 0.02978,-0.00689c0.00711,-0.01694 0.01863,-0.03438 0.03607,-0.05181c0.10281,-0.10281 0.20561,0 0.20561,0c0.35202,0.35412 0.52153,0.75503 0.6941,1.21454c0.08079,0.21513 0.17062,0.43037 0.21799,0.65686c0.04467,0.21358 0.09002,0.43398 0.13197,0.64667c0.03554,0.18018 0.02079,0.31372 0.07943,0.48966c0.05446,0.56851 0.02952,1.15076 0.02952,1.72184c0,0.41885 0.02703,0.84643 -0.02771,1.26183l-0.01392,0.084c0,0 -0.0096,0.05761 -0.05315,0.09372c-0.2565,0.64901 -0.45531,1.31414 -0.81338,1.91425c-0.11861,0.19879 -0.09163,0.23323 -0.23888,0.39562c-0.31037,0.34228 -0.65585,0.55252 -1.04584,0.78575c-0.05095,0.02324 -0.10189,0.04649 -0.15284,0.06973l-0.11276,0.03388c0,0 -0.1176,0.0336 -0.16789,-0.06869c-0.0174,-0.01084 -0.02773,-0.02118 -0.02773,-0.02118z" fill="#e2ffff" stroke="none"/><path d="M248.98861,455.85156c-0.06896,-0.02299 -0.04598,-0.09195 -0.04598,-0.09195l0.02064,-0.05744c0.20582,-0.353 0.46041,-0.79893 0.52361,-1.21218c0.02749,-0.17972 -0.00082,-0.38851 -0.00082,-0.57067c0,-0.68428 0.05465,-1.40766 -0.05022,-2.08627c-0.04384,-0.2837 -0.09797,-0.57052 -0.15003,-0.85412c-0.05124,-0.22532 -0.13082,-0.41348 -0.20983,-0.62936c-0.05777,-0.15785 -0.07044,-0.33552 -0.13528,-0.49032c-0.05407,-0.12908 -0.1494,-0.24831 -0.21521,-0.37197c-0.11056,-0.20775 -0.18474,-0.50722 -0.39009,-0.63889c0,0 -0.06049,-0.04032 -0.02016,-0.10081c0.04032,-0.06049 0.10081,-0.02016 0.10081,-0.02016c0.23122,0.15865 0.31067,0.45278 0.43804,0.69203c0.068,0.12772 0.16485,0.25027 0.22072,0.38364c0.06619,0.158 0.07948,0.33826 0.13861,0.49905c0.08138,0.22128 0.16226,0.41618 0.21482,0.64756c0.05256,0.28592 0.10709,0.57508 0.1513,0.86117c0.10605,0.68624 0.05193,1.41651 0.05193,2.10848c0,0.18987 0.02735,0.40494 -0.00082,0.59245c-0.06551,0.43602 -0.3305,0.88772 -0.54113,1.26254l-0.00894,0.03129c0,0 -0.02299,0.06896 -0.09195,0.04598z" fill="#e2ffff" stroke="none"/><path d="M246.4206,456.36234c-0.0514,-0.0514 0,-0.10281 0,-0.10281l0.01003,-0.00899c0.17013,-0.22505 0.19274,-0.52384 0.32993,-0.76903c0.06726,-0.12021 0.17427,-0.2271 0.22095,-0.36053c0.0162,-0.04631 0.00986,-0.09866 0.02664,-0.14476c0.07157,-0.19659 0.21644,-0.36072 0.28278,-0.56621c0.03544,-0.31742 0.17835,-0.6187 0.23611,-0.93458c0.1222,-0.66832 0.13071,-1.33718 0.13071,-2.01364c0,-0.30584 0.00505,-0.61729 -0.03448,-0.92141c-0.02323,-0.1787 -0.07694,-0.35045 -0.08969,-0.53086c-0.02123,-0.30038 0.0094,-0.70022 -0.15072,-0.96008c0,0 -0.0374,-0.06234 0.02493,-0.09974c0.06234,-0.0374 0.09974,0.02493 0.09974,0.02493c0.17056,0.29056 0.14799,0.69289 0.17108,1.02471c0.01234,0.17734 0.06599,0.34651 0.08883,0.52229c0.04034,0.31037 0.03569,0.62802 0.03569,0.94015c0,0.68505 -0.00934,1.36302 -0.13308,2.0398c-0.05799,0.31715 -0.20171,0.62017 -0.23693,0.93875c-0.06744,0.21249 -0.21822,0.38534 -0.28916,0.58778c-0.06948,0.19829 -0.15297,0.3407 -0.25663,0.52458c-0.14174,0.2514 -0.16642,0.55155 -0.34038,0.78508l-0.02353,0.02457c0,0 -0.0514,0.0514 -0.10281,0z" fill="#e2ffff" stroke="none"/><path d="M249.91276,456.54374c-0.06502,-0.03251 -0.03251,-0.09753 -0.03251,-0.09753l0.02577,-0.04737c0.1684,-0.20226 0.37976,-0.50019 0.47438,-0.75057c0.06541,-0.17309 0.09256,-0.35511 0.16561,-0.52992c0.05412,-0.51349 0.20653,-1.01268 0.24962,-1.53117c0.02943,-0.35409 -0.01543,-0.71528 -0.0179,-1.06939c-0.00091,-0.13761 0.00864,-0.28924 -0.01196,-0.42555c-0.04324,-0.28612 -0.16867,-0.5602 -0.2057,-0.84922c-0.05547,-0.43293 -0.03197,-0.84705 -0.16404,-1.26967c0,0 -0.02168,-0.06939 0.0477,-0.09107c0.06939,-0.02168 0.09107,0.0477 0.09107,0.0477c0.13489,0.43165 0.11286,0.85268 0.16948,1.29456c0.03688,0.28784 0.16214,0.56078 0.20524,0.84597c0.02164,0.14316 0.01262,0.30173 0.01359,0.44631c0.00229,0.35826 0.04707,0.72316 0.01748,1.08145c-0.04354,0.52719 -0.1927,1.03453 -0.25375,1.55618c-0.0731,0.17986 -0.10298,0.36596 -0.16997,0.54393c-0.10025,0.26635 -0.32072,0.57631 -0.49881,0.7931l-0.00779,0.01975c0,0 -0.03251,0.06502 -0.09753,0.03251z" fill="#e2ffff" stroke="none"/></g><g stroke="#000000" stroke-linecap="butt"><path d="M243.33323,452.70276c0,-1.00129 0.81171,-1.813 1.813,-1.813c1.00129,0 1.813,0.81171 1.813,1.813c0,1.00129 -0.81171,1.813 -1.813,1.813c-1.00129,0 -1.813,-0.81171 -1.813,-1.813z" fill="#ffffff"/><path d="M245.38568,452.70276c0,-0.42193 0.34204,-0.76397 0.76397,-0.76397c0.42193,0 0.76397,0.34204 0.76397,0.76397c0,0.42193 -0.34204,0.76397 -0.76397,0.76397c-0.42193,0 -0.76397,-0.34204 -0.76397,-0.76397z" fill="#000000"/></g><path d="M245.20414,455.42287c0,0 -0.40887,0.18006 -0.77565,0.18006c-0.35293,0 -0.66484,-0.55403 -0.66484,-0.55403" fill="none" stroke="#000000" stroke-linecap="round"/><g data-paper-data="{&quot;index&quot;:null}" stroke="#000000" stroke-linecap="butt"><path d="M249.09393,454.4469c-1.00129,0 -1.813,-0.81171 -1.813,-1.813c0,-1.00129 0.81171,-1.813 1.813,-1.813c1.00129,0 1.813,0.81171 1.813,1.813c0,1.00129 -0.81171,1.813 -1.813,1.813z" fill="#ffffff"/><path d="M248.09051,453.39787c-0.42193,0 -0.76397,-0.34204 -0.76397,-0.76397c0,-0.42193 0.34204,-0.76397 0.76397,-0.76397c0.42193,0 0.76397,0.34204 0.76397,0.76397c0,0.42193 -0.34204,0.76397 -0.76397,0.76397z" fill="#000000"/></g><path d="M243.80504,458.23743c-0.04145,0.0829 -0.10933,0.08653 -0.15309,0.07826c-0.0355,0.34715 -0.02841,0.69368 -0.0401,1.04443c0.06567,0.0998 0.17874,0.17068 0.22036,0.28267c0.04424,0.11903 0.03821,0.36964 0.03826,0.51617c0.00009,0.24781 0.00174,0.50107 -0.02886,0.74621c-0.02771,0.22197 -0.05559,0.38408 -0.05559,0.60496c0,0.10906 -0.03568,0.2224 -0.00528,0.32713c0.01397,0.04813 0.0623,0.08041 0.08001,0.1273c0.05594,0.14815 0.05323,0.31243 0.08961,0.46656c0.06222,0.2636 0.16979,0.51555 0.23781,0.77868c0.08951,0.08298 0.1857,0.22781 0.28892,0.28785c0.11417,0.06641 0.24343,0.10604 0.3534,0.1792c0.00103,0.00068 0.24633,0.18651 0.32954,0.1958c0.29849,0.03332 0.64293,0.00751 0.93969,-0.02965c0.13082,-0.01638 0.26655,0.00164 0.39432,-0.03089c0.22071,-0.0562 0.43397,-0.16695 0.64315,-0.24277c0.26922,-0.09759 0.4618,-0.11229 0.67475,-0.32754c0.20735,-0.24812 0.2454,-0.52591 0.40592,-0.79472c0.02793,-0.04677 0.08413,-0.07124 0.1149,-0.1162c0.13929,-0.20354 0.11454,-0.4685 0.17918,-0.69368c0.07601,-0.26482 0.08955,-0.55503 0.16936,-0.81784c0.01731,-0.05701 0.0665,-0.10135 0.08172,-0.15895c0.02902,-0.10978 0.01889,-0.24976 0.01766,-0.38144c-0.00427,-0.13329 -0.00089,-0.26718 -0.01958,-0.39906c-0.00835,-0.05893 -0.04759,-0.11056 -0.05639,-0.16943c-0.00252,-0.01684 -0.00188,-0.43158 -0.00188,-0.44553c0,-0.40863 0.00566,-0.81281 0.02843,-1.21945c0.03502,-0.62532 -0.00096,-1.26225 0.00021,-1.88895c0.0852,-0.51122 0.02765,-1.07369 0.02765,-1.59251c0,-0.07659 -0.00076,-0.43164 0.00389,-0.45564c0.01198,-0.06179 0.06834,-0.10805 0.08445,-0.1689c0.0472,-0.17834 -0.00389,-0.4267 -0.00389,-0.61403c0,-0.52048 0.02216,-1.04608 -0.02495,-1.56453c-0.02758,-0.14824 -0.09145,-0.28874 -0.11333,-0.43792c-0.04164,-0.28397 -0.00674,-0.59699 -0.03012,-0.88493c-0.03065,-0.37752 -0.17145,-0.74689 -0.19704,-1.12597c-0.04363,-0.64609 0.05555,-1.30145 -0.02834,-1.94487c0.00271,-0.26774 -0.13138,-0.5106 -0.16658,-0.7701c-0.03799,-0.28016 -0.02956,-0.58288 -0.10982,-0.86086c-0.02076,-0.07191 -0.07302,-0.13351 -0.08688,-0.20707c-0.01619,-0.08596 0.0093,-0.17562 -0.00156,-0.26241c-0.00815,-0.06514 -0.04288,-0.12459 -0.05496,-0.18911c-0.02715,-0.14498 -0.01268,-0.29753 -0.05364,-0.43923c-0.05183,-0.17932 -0.15413,-0.34829 -0.2207,-0.52138c-0.11119,-0.28909 -0.1687,-0.55935 -0.44957,-0.7326c-0.48384,-0.07186 -1.08955,-0.11338 -1.56033,0.0563c-0.26546,0.09568 -0.46917,0.3379 -0.69964,0.48999c-0.15309,0.10102 -0.34698,0.14845 -0.47225,0.28242c-0.15242,0.163 -0.15061,0.39349 -0.20075,0.58899c-0.07145,0.27854 -0.23895,0.53584 -0.281,0.81423c-0.13645,0.47792 -0.22908,0.94428 -0.19398,1.44794c0.00732,0.10497 0.07555,0.19943 0.08391,0.30433c0.02056,0.25793 -0.08386,0.54232 -0.08341,0.80548v0.08445c0,0 0,0.14539 -0.14539,0.14539c-0.03079,0 -0.05506,-0.00652 -0.07419,-0.0168c-0.07303,0.01457 -0.14663,0.02813 -0.20694,0.06928c-0.11236,0.07666 -0.17945,0.16021 -0.27989,0.23322c-0.00745,0.04158 -0.0357,0.12036 -0.14272,0.12036c-0.05823,0 -0.09314,-0.02332 -0.11406,-0.05128c-0.02148,-0.01269 -0.04174,-0.03372 -0.05743,-0.06734c-0.03623,-0.07763 -0.00537,-0.13087 0.0261,-0.1615c0,-0.71512 0,-1.43023 0,-2.14535c0,-0.40185 -0.04058,-0.83425 0.00075,-1.2345c0.02463,-0.23853 0.12543,-0.47231 0.17849,-0.70536c0.10421,-0.17689 0.20987,-0.39059 0.24608,-0.59518c0.03288,-0.18583 0.05435,-0.3735 0.07908,-0.56059c0.01623,-0.1228 0.01602,-0.25785 0.0826,-0.3623c0.15247,-0.23921 0.43178,-0.41742 0.66954,-0.55346c0.39976,-0.22873 0.85094,-0.47378 1.31034,-0.55079c0.12282,-0.02059 0.24968,-0.00843 0.37246,-0.02925c0.50053,-0.06203 1.0181,-0.02967 1.52217,-0.02967c0.31369,0 0.65051,-0.05582 0.93464,0.10313c0.41219,0.23059 0.59184,0.64364 0.78958,1.04488c0.02861,0.05804 0.08065,0.10602 0.09556,0.16899c0.03741,0.15799 -0.0058,0.3278 0.03004,0.48616c0.03694,0.1632 0.09324,0.32278 0.11446,0.48875c0.0905,0.54257 0.33132,1.03502 0.42113,1.56983c0.01123,0.06687 -0.01065,0.13664 0.00108,0.20343c0.01675,0.09534 0.06612,0.18292 0.0835,0.27814c0.04503,0.24672 -0.01054,0.52784 0.00234,0.7779c0.01684,0.32692 0.09184,0.63125 0.11257,0.95642c0.01311,0.20556 0.00018,0.4212 0.00018,0.62652c0,0.50522 -0.00356,1.00801 0.02787,1.51102c0.00537,0.0859 -0.01339,0.28658 0.02005,0.38263c0.01909,0.05483 0.07399,0.09413 0.08755,0.15058c0.01837,0.07646 0.00425,0.15722 0.00528,0.23585c0.00257,0.19705 0.02866,0.42468 -0.00262,0.61863c-0.00805,0.04988 -0.04746,0.091 -0.0563,0.14075c-0.03806,0.21417 0.05447,0.4234 0.08567,0.62792c0.01874,0.12286 0.00905,0.24866 0.02332,0.37212c0.06751,0.13815 0.07946,0.29899 0.09019,0.45238c0.0132,0.1886 0.07009,0.37559 0.08458,0.56467c0.01861,0.24295 0.0365,0.55813 -0.00226,0.79783c-0.00744,0.04605 -0.05004,0.08245 -0.05452,0.12888c-0.00461,0.04782 0.02453,0.0934 0.0285,0.14128c0.01478,0.1786 0.0005,0.36737 0.0005,0.54683c0,0.47899 -0.02925,0.95943 -0.02815,1.43561c0,0.01969 0.00088,0.3734 -0.00262,0.39343c-0.0087,0.04977 -0.04686,0.09111 -0.0563,0.14075c-0.03471,0.18243 0.00262,0.40506 0.00262,0.59179c0,0.11282 -0.02371,0.22761 -0.00262,0.33844c0.00944,0.04964 0.0493,0.0907 0.0563,0.14075c0.04794,0.34301 0.00262,0.72226 0.00262,1.06901v0.14075c0,0 0,0.02965 -0.01339,0.06218c0.0116,0.0513 0.02281,0.10272 0.03616,0.15354c0.02569,0.09776 0.10367,0.17507 0.13717,0.27043c0.06747,0.19208 0.0371,0.41407 0.0371,0.61322c0,0.02136 0.00088,0.42803 -0.00262,0.44973c-0.00805,0.04988 -0.04715,0.09105 -0.0563,0.14075c-0.03217,0.1747 -0.01634,0.36265 -0.05756,0.54074c-0.03842,0.16597 -0.09491,0.3475 -0.14182,0.51093c-0.03511,0.12231 -0.11645,0.23044 -0.13841,0.35578c-0.0217,0.12386 -0.00015,0.25396 -0.03046,0.37599c-0.04961,0.19977 -0.15862,0.36441 -0.27644,0.52681c-0.2057,0.28353 -0.37825,0.59662 -0.64959,0.81933c-0.11861,0.10337 -0.21033,0.23612 -0.33354,0.33396c-0.1337,0.10617 -0.32388,0.12975 -0.47714,0.1792c-0.6315,0.20374 -1.21662,0.21899 -1.87567,0.21899c-0.25954,0 -0.51907,0 -0.77861,0c-0.06231,0 -0.40782,0.00085 -0.42749,-0.00389c-0.08208,-0.01976 -0.14563,-0.08938 -0.22669,-0.11296c-0.05167,-0.01503 -0.10771,0.00313 -0.16144,0.00005c-0.1765,-0.01012 -0.35403,-0.0417 -0.52078,-0.10042c-0.47335,-0.1185 -0.96971,-0.14067 -1.37094,-0.46101c-0.26044,-0.20794 -0.34131,-0.44121 -0.46603,-0.73206c-0.21364,-0.49822 -0.31722,-0.99543 -0.37717,-1.53397c0,0 -0.0031,-0.02791 0.00569,-0.06057l-0.06126,-0.13091l0.02703,-0.20251c-0.00092,-0.59925 0.23365,-1.10266 0.34004,-1.67691c0.08245,-0.44505 0.08171,-0.86977 0.08171,-1.32306c0,-0.28324 0.01064,-0.56672 -0.01198,-0.84854c-0.03516,-0.03807 -0.04086,-0.08936 -0.04086,-0.08936c0.00314,-0.10723 -0.01065,-0.20661 0.00305,-0.27911c-0.00924,-0.04175 -0.01276,-0.12348 0.08418,-0.16503c0.09951,-0.04265 0.15668,0.02056 0.17939,0.05563c0.02832,0.00443 0.05956,0.01066 0.09402,0.01879c0.08843,0.02087 0.12448,0.13254 0.19056,0.19489c0.12359,0.11662 0.2394,0.21937 0.36492,0.31252l0.08895,0.03459l0.01492,0.03868c0.00058,0.00039 0.00116,0.00078 0.00174,0.00117l0.01339,-0.01004l0.02764,0.03685c0.05221,0.0334 0.10684,0.0656 0.1649,0.09686l0.08334,0.04159c0,0 0.13004,0.06502 0.06502,0.19506z" fill="#a5d6d0" stroke="none" stroke-linecap="butt"/></g><path d="M547.66041,180c0,168.28625 -137.74426,304.70922 -307.66041,304.70922c-169.91615,0 -307.66041,-136.42299 -307.66041,-304.70922c0,-168.28625 137.74426,-304.70922 307.66041,-304.70922c169.91615,0 307.66041,136.42299 307.66041,304.70922z" fill="none" stroke="#ffffff" stroke-width="4" stroke-linecap="butt"/><path d="M13.14464,-40.5c0,-5.16682 4.18854,-9.35536 9.35536,-9.35536c5.16682,0 9.35536,4.18854 9.35536,9.35536c0,5.16682 -4.18854,9.35536 -9.35536,9.35536c-5.16682,0 -9.35536,-4.18854 -9.35536,-9.35536z" fill="#0046ff" stroke="#002079" stroke-width="1" stroke-linecap="butt"/><path d="M16.6445,-36.60094c0,-0.03675 0.00872,-0.07147 0.0242,-0.1022c-0.05325,-0.04605 -0.10818,-0.09017 -0.16453,-0.1322c0,0 -0.06463,-0.04847 -0.08795,-0.12616c-0.41576,-0.15875 -0.68533,-0.42108 -1.06266,-0.67912c-0.32305,-0.22093 -0.67384,-0.41329 -0.95369,-0.69447c-0.13282,-0.13345 -0.54277,-0.62278 -0.46993,-0.82077c0.06271,-0.17045 0.31173,-0.20316 0.48987,-0.23851c0.16502,-0.03274 0.33586,0.02236 0.50301,0.0415c0.93478,0.10704 1.48198,1.07117 2.42608,1.14508c0.10511,0.05324 0.20023,0.13456 0.31534,0.15973c0.1261,0.02758 0.25812,-0.00748 0.3872,-0.00608c0.05294,0.00057 0.11121,0.03607 0.15837,0.01201c0.11764,-0.06003 0.19953,-0.17381 0.30757,-0.24976c0.18338,-0.12891 0.41443,-0.17188 0.6151,-0.27176c0.13739,-0.06838 0.24726,-0.18594 0.38697,-0.24946c0.59082,-0.26862 1.42353,-0.11991 2.06285,-0.11991c0.27269,0 0.71118,-0.05993 0.98907,0.00241c0.12662,0.02841 0.28272,0.03721 0.36383,0.1385c0.21488,0.26836 0.12824,0.67512 0.21692,0.97956c0.08563,0.29396 0.13138,0.32593 0.28887,0.54837c0.4494,0.64471 1.30645,0.86628 2.05046,1.00153c0.11606,0.0211 0.86052,0.03713 0.92752,0.14732c0.32567,0.53564 -0.34767,0.91479 -0.68254,1.08373c-0.63231,0.31899 -1.35069,0.20825 -2.04166,0.20765c-0.18575,-0.00016 -0.54465,0.01793 -0.71667,-0.06579c-0.1487,-0.07237 -0.2597,-0.20483 -0.38955,-0.30724c-0.67873,-0.38793 -1.35343,-0.68884 -2.07895,-0.9853c-0.16738,-0.06839 -0.30826,-0.20149 -0.48357,-0.24579c-0.53163,-0.13433 -1.12768,0.14453 -1.64091,0.214c-0.37027,0.05012 -0.77964,0.00253 -1.15451,0.00213l-0.24258,-0.02397c0,0 -0.15741,-0.01574 -0.19651,-0.15225c-0.08592,-0.03247 -0.14702,-0.11549 -0.14702,-0.21278z" fill="#84a5ff" stroke="none" stroke-width="1" stroke-linecap="butt"/><path d="M28.94383,-45.81266c0.16079,0.16079 0,0.32158 0,0.32158l-0.17474,0.15824c-0.59637,0.29235 -1.3047,0.18712 -1.95519,0.18511c-0.72845,-0.01368 -1.46825,-0.15754 -2.19224,-0.26097c-0.7075,-0.10108 -1.39691,-0.20809 -2.09757,-0.34599c-0.22506,-0.04429 -0.72423,-0.13127 -0.93205,-0.22056c-0.14386,-0.0618 -0.26327,-0.16996 -0.40003,-0.24618c-0.33668,-0.18762 -0.72188,-0.33601 -1.03653,-0.56243c-0.29993,-0.21583 -0.42343,-0.39017 -0.65769,-0.66282c0,0 -0.14798,-0.17265 0.02466,-0.32063c0.17265,-0.14798 0.32063,0.02466 0.32063,0.02466c0.19688,0.23028 0.32686,0.41071 0.57721,0.58906c0.30121,0.21458 0.67324,0.35563 0.99373,0.53525c0.12338,0.06915 0.22953,0.16938 0.35916,0.22594c0.15177,0.06622 0.68871,0.16198 0.8387,0.19148c0.69306,0.13629 1.3742,0.24203 2.0741,0.342c0.70285,0.1004 1.42548,0.24639 2.13239,0.25642c0.55947,0.00171 1.23868,0.12366 1.74734,-0.13712l0.05654,-0.07305c0,0 0.16079,-0.16079 0.32158,0z" fill="#84a5ff" stroke="none" stroke-width="1" stroke-linecap="butt"/><path d="M30.61316,-41.49611c0.08445,0.21113 -0.12668,0.29558 -0.12668,0.29558l-0.25094,0.09935c-0.18303,0.03702 -0.36867,0.06228 -0.55474,0.07803c0,0 -0.04772,0.00398 -0.10119,-0.01362c-0.04346,0.0144 -0.07959,0.0144 -0.07959,0.0144h-0.1619c-1.33517,0 -2.68861,0.14702 -3.94824,-0.36373c0,0 -0.21059,-0.08579 -0.12479,-0.29638c0.08579,-0.21059 0.29638,-0.12479 0.29638,-0.12479c1.1943,0.48907 2.50848,0.33012 3.77666,0.33012h0.1619c0,0 0.03738,0 0.08184,0.01516c0.03439,-0.01214 0.06118,-0.01437 0.06118,-0.01437c0.15511,-0.01271 0.31022,-0.03066 0.46292,-0.06074l0.21163,-0.08568c0,0 0.21113,-0.08445 0.29558,0.12668z" fill="#84a5ff" stroke="none" stroke-width="1" stroke-linecap="butt"/><path d="M23.55211,-33.03145c0,0.22739 -0.22739,0.22739 -0.22739,0.22739l-0.09314,0c-0.70188,-0.00202 -1.34398,-0.12246 -2.0317,-0.23696c-0.15717,-0.02617 -0.31977,-0.02364 -0.47345,-0.06568c-0.01702,-0.00466 -0.86259,-0.36039 -0.88426,-0.37106c-0.21361,-0.10519 -0.40651,-0.24857 -0.60201,-0.38449c-0.04604,-0.03201 -0.07287,-0.0966 -0.12734,-0.1099c-0.08914,-0.02176 -0.18335,0.00778 -0.27502,0.01167c0,0 -0.22739,0 -0.22739,-0.22739c0,-0.22739 0.22739,-0.22739 0.22739,-0.22739c0.13961,0.00389 0.28403,-0.02487 0.41883,0.01167c0.23847,0.06464 0.41078,0.27472 0.61875,0.40812c0.28238,0.18113 0.6467,0.36199 0.97069,0.45001c0.7534,0.20468 1.60803,0.28458 2.38675,0.28662l0.09189,0c0,0 0.22739,0 0.22739,0.22739z" fill="#84a5ff" stroke="none" stroke-width="1" stroke-linecap="butt"/><path d="M17.66582,-41.89988c0.07191,0.21572 -0.14381,0.28763 -0.14381,0.28763l-0.15812,0.03417c-0.42757,-0.03195 -0.91383,-0.05546 -1.31333,-0.22672c-0.89976,-0.3857 -1.49627,-1.16089 -1.64687,-2.11642c0,0 -0.03458,-0.22475 0.19017,-0.25932c0.22475,-0.03458 0.25932,0.19017 0.25932,0.19017c0.12027,0.80472 0.62508,1.44162 1.37737,1.76792c0.34979,0.15172 0.79251,0.16326 1.16699,0.19083l-0.01934,-0.01208c0,0 0.21572,-0.07191 0.28763,0.14381z" fill="#84a5ff" stroke="none" stroke-width="1" stroke-linecap="butt"/><path d="M19.12138,-37.1645c-0.03147,-0.03139 -0.05806,-0.06604 -0.07499,-0.10716c-0.05653,-0.13737 -0.04454,-0.30014 -0.01359,-0.44542c0.15708,-0.73717 1.19576,-0.61459 1.74,-0.61459c0.15159,0 0.30319,-0.00005 0.45478,0c0.07665,0.00002 0.69355,-0.02618 0.81122,0.06052c0.13241,0.09756 0.20027,0.21661 0.22192,0.34271c0.012,0.02746 0.01931,0.06093 0.01931,0.1017c0,0.04369 -0.00839,0.07899 -0.02196,0.1075c-0.04116,0.23073 -0.19745,0.45893 -0.36514,0.60288c-0.17229,0.1479 -0.44962,0.19475 -0.66168,0.24973c-0.33162,0.08598 -0.6416,0.07677 -0.98263,0.07677c-0.1249,-0.00057 -0.25064,0.01272 -0.37471,-0.0017c-0.15235,-0.01771 -0.75476,-0.17717 -0.75255,-0.37294zM21.09548,-37.47983c0.02106,-0.002 0.04207,-0.00456 0.063,-0.00778c-0.01076,0.00044 -0.02017,0.00121 -0.02787,0.00238c-0.01172,0.00179 -0.02343,0.00359 -0.03513,0.0054zM19.9222,-37.76314c0.02608,-0.00119 0.05209,-0.00251 0.07772,-0.00473c0.01044,-0.00859 0.02129,-0.0169 0.03242,-0.02502c-0.02435,0.00427 -0.04818,0.00962 -0.07139,0.01619c-0.01447,0.00409 -0.02731,0.00862 -0.03875,0.01356z" fill="#b4c8ff" stroke="none" stroke-width="1" stroke-linecap="butt"/><g stroke="#000000" stroke-width="1" stroke-linecap="butt"><path d="M17.21883,-41.21008c0,-1.39641 1.13201,-2.52842 2.52842,-2.52842c1.39641,0 2.52842,1.13201 2.52842,2.52842c0,1.39641 -1.13201,2.52842 -2.52842,2.52842c-1.39641,0 -2.52842,-1.13201 -2.52842,-2.52842z" fill="#ffffff"/><path d="M17.56015,-40.55949c0,-0.58842 0.47701,-1.06544 1.06544,-1.06544c0.58842,0 1.06544,0.47701 1.06544,1.06544c0,0.58842 -0.47701,1.06544 -1.06544,1.06544c-0.58842,0 -1.06544,-0.47701 -1.06544,-1.06544z" fill="#000000"/></g><path d="M19.82801,-37.41659c0,0 -0.57021,0.25111 -1.08172,0.25111c-0.4922,0 -0.92719,-0.77266 -0.92719,-0.77266" fill="none" stroke="#000000" stroke-width="1" stroke-linecap="round"/><g data-paper-data="{&quot;index&quot;:null}" stroke="#000000" stroke-width="1" stroke-linecap="butt"><path d="M25.25275,-38.77769c-1.39641,0 -2.52842,-1.13201 -2.52842,-2.52842c0,-1.39641 1.13201,-2.52842 2.52842,-2.52842c1.39641,0 2.52842,1.13201 2.52842,2.52842c0,1.39641 -1.13201,2.52842 -2.52842,2.52842z" fill="#ffffff"/><path d="M26.4693,-41.0268c-0.58842,0 -1.06544,-0.47701 -1.06544,-1.06544c0,-0.58843 0.47701,-1.06544 1.06544,-1.06544c0.58842,0 1.06544,0.47701 1.06544,1.06544c0,0.58843 -0.47701,1.06544 -1.06544,1.06544z" fill="#000000"/></g><path d="M587.99975,180c0,190.35134 -155.8048,344.66162 -347.99975,344.66162c-192.19495,0 -347.99975,-154.31028 -347.99975,-344.66162c0,-190.35134 155.8048,-344.66162 347.99975,-344.66162c192.19495,0 347.99975,154.31028 347.99975,344.66162z" fill="none" stroke="#a5a5a5" stroke-width="20.5" stroke-linecap="butt"/></g></g></svg>