<?xml version='1.0' encoding='utf-8'?>
<svg xmlns="http://www.w3.org/2000/svg" width="67.455mm" height="58.635mm" version="1.1" viewBox="0 0 67.455 58.635"> <g transform="translate(-66.091 -145.53)"> <path d="m79.864 178.79s-2.4867 15.611 0.8289 19.755c3.3156 4.1445 32.88 8.1508 36.195 2.4867 3.3156-5.6642 3.73-26.248 3.73-26.248s-0.55259-8.5653-3.1774-10.499c-2.6249-1.9341-9.4098-3.3772-14.782-3.1774-5.3723 0.19972-12.71 0.82889-17.545 4.8352-4.8353 4.0063-5.2497 12.848-5.2497 12.848z" fill="#e9c6af" stroke="#000" stroke-linecap="butt" stroke-linejoin="miter" stroke-width=".65399px"/> <path d="m79.521 174.69s11.09-3.7252 19.299-3.8408c8.2083-0.1156 10.711 0.31416 13.295 0.46244l8.6625 1.1561s0.63998 2.4216 0.57634 5.8961c-0.0638 3.4745-0.97687 6.0596-0.97687 6.0596s-6.8448-0.73716-10.948-1.0723-8.069-1.4881-13.262-1.1052c-5.1934 0.38291-17.463 4.095-17.463 4.095s0.08182-4.0744 0.08182-5.8663 0.73574-5.7846 0.73574-5.7846z" stroke="#000" stroke-linecap="butt" stroke-linejoin="miter" stroke-width=".65399px"/> <path d="m119.77 179.17s4.7613-6.3522 7.7714-8.121c3.0102-1.7688 5.6741-1.5508 5.6741-1.5508s0.0811 4.122-2.8253 5.9945-10.62 3.6773-10.62 3.6773z" stroke="#000" stroke-linecap="butt" stroke-linejoin="miter" stroke-width=".65399px"/> <path d="m117.98 176.93s7.8802 0.96057 10.914 2.6882c3.034 1.7276 4.1731 4.1456 4.1731 4.1456s-3.5328 2.1252-6.605 0.53929c-3.0722-1.586-8.4824-7.373-8.4824-7.373z" stroke="#000" stroke-linecap="butt" stroke-linejoin="miter" stroke-width=".65399px"/> <path d="m79.864 178.79s-4.7613 6.3522-7.7714 8.121c-3.0102 1.7688-5.6741 1.5508-5.6741 1.5508s-0.08107-4.122 2.8253-5.9945c2.9064-1.8726 10.62-3.6773 10.62-3.6773z" stroke="#000" stroke-linecap="butt" stroke-linejoin="miter" stroke-width=".65399px"/> <path d="m81.662 181.03s-7.8802-0.96057-10.914-2.6882c-3.034-1.7276-4.1731-4.1456-4.1731-4.1456s3.5328-2.1252 6.605-0.53929c3.0722 1.586 8.4823 7.373 8.4823 7.373z" stroke="#000" stroke-linecap="butt" stroke-linejoin="miter" stroke-width=".65399px"/> <ellipse transform="rotate(9.8294)" cx="139.13" cy="156.66" rx="4.8822" ry="1.6274" fill="#fff" stroke="#000" stroke-linecap="square" stroke-linejoin="miter" stroke-miterlimit="4" stroke-width=".79411" style="paint-order:stroke fill markers"/> <path transform="matrix(.98873 .14969 -.23181 .97276 0 0)" d="m146.85 161.48a2.1657 2.397 0 0 1 2.2088-1.9154 2.1657 2.397 0 0 1 2.0629 2.1052l-2.1498 0.28986z" stroke="#000" stroke-linecap="round" stroke-linejoin="bevel" stroke-miterlimit="4" stroke-width=".3649" style="paint-order:stroke fill markers"/> <ellipse transform="rotate(-60)" cx="-99.201" cy="185.14" rx=".28221" ry=".49921" fill="#fff" stroke="#000" stroke-linecap="round" stroke-linejoin="bevel" stroke-miterlimit="4" stroke-width=".61983" style="paint-order:stroke fill markers"/> <ellipse transform="rotate(-10.093)" cx="62.492" cy="191.88" rx="4.8822" ry="1.6274" fill="#fff" stroke="#000" stroke-linecap="square" stroke-linejoin="miter" stroke-miterlimit="4" stroke-width=".79411" style="paint-order:stroke fill markers"/> <path transform="matrix(.98057 -.19619 .11354 .99353 0 0)" d="m72.294 195.18a2.1657 2.397 0 0 1 2.2088-1.9154 2.1657 2.397 0 0 1 2.0629 2.1052l-2.1498 0.28986z" stroke="#000" stroke-linecap="round" stroke-linejoin="bevel" stroke-miterlimit="4" stroke-width=".3649" style="paint-order:stroke fill markers"/> <path d="m82.765 196.34s2.3485-3.4537 4.8352-4.0063 19.755 3.1774 24.038 1.3815c4.2826-1.7959 3.7301-4.8352 3.7301-4.8352" fill="none" stroke="#000" stroke-linecap="butt" stroke-linejoin="miter" stroke-width=".65399px"/> <path d="m96.166 182.25s-3.1774 2.763-2.763 4.1445c0.41444 1.3815 3.5919 2.763 6.493 2.6248 2.9011-0.13814 4.2826-0.13814 6.9075-2.9011 2.6248-2.763 2.6248-2.763 2.6248-2.763" fill="none" stroke="#000" stroke-linecap="butt" stroke-linejoin="miter" stroke-width=".65399px"/> <path d="m79.686 173.47s4.8556-2.3122 11.619-3.0637c6.7632-0.75146 10.098-0.90384 15.029-0.69366 4.9311 0.21017 13.51 2.659 14.443 1.9076s-0.68547-7.399-0.68547-7.399-0.23111-0.75146-0.92486-0.92487c-0.69368-0.17342-6.3007-1.3873-12.312-1.5607-6.0117-0.17342-10.752-0.17342-16.648 0.23124-5.8383 0.86707-7.2256 0.86707-8.9019 1.5607-1.6763 0.69366-1.792 2.8902-1.792 2.8902s-0.50159 6.5864 0.17352 7.0522z" fill="#784421" stroke="#784421" stroke-linecap="butt" stroke-linejoin="miter" stroke-width=".65399px"/> <path d="m81.42 163.45s-0.34684-2.4278 4.3353-7.399c4.6822-4.9712 9.0927-6.7501 14.451-7.2834 5.3585-0.53329 12.312 5.029 14.22 6.7632 1.9076 1.7341 5.029 7.5724 5.029 7.5724s-8.7285-2.3122-20.463-1.6763c-11.734 0.63585-17.573 2.0232-17.573 2.0232z" fill="#a05a2c" stroke="#a05a2c" stroke-linecap="butt" stroke-linejoin="miter" stroke-width=".65399px"/> <ellipse cx="100.41" cy="148.87" rx="5.0309" ry="2.1003" fill="#a05a2c" stroke="#a05a2c" stroke-linecap="round" stroke-linejoin="bevel" stroke-miterlimit="4" stroke-width="2.4718" style="paint-order:stroke fill markers"/> <ellipse transform="rotate(-60)" cx="-106.43" cy="172.11" rx=".28221" ry=".49921" fill="#fff" stroke="#000" stroke-linecap="round" stroke-linejoin="bevel" stroke-miterlimit="4" stroke-width=".61983" style="paint-order:stroke fill markers"/> </g> </svg>