<svg version="1.1" xmlns="http://www.w3.org/2000/svg" xmlns:xlink="http://www.w3.org/1999/xlink" width="196.43037" height="217.33236" viewBox="0,0,196.43037,217.33236"><defs><linearGradient x1="174.58203" y1="179.99999" x2="305.41797" y2="179.99999" gradientUnits="userSpaceOnUse" id="color-1"><stop offset="0" stop-color="#4b0082"/><stop offset="1" stop-color="#800880"/></linearGradient><linearGradient x1="259.98938" y1="179.99999" x2="279.34421" y2="179.99999" gradientUnits="userSpaceOnUse" id="color-2"><stop offset="0" stop-color="#4b0082"/><stop offset="1" stop-color="#800880"/></linearGradient></defs><g transform="translate(-141.78481,-71.33382)"><g data-paper-data="{&quot;isPaintingLayer&quot;:true}" fill-rule="nonzero" stroke-miterlimit="10" stroke-dasharray="" stroke-dashoffset="0" style="mix-blend-mode: normal"><path d="M154.23709,82.98526c0.19337,-0.11047 0.39033,-0.21488 0.5801,-0.33142c1.72697,-1.06059 0.65862,-0.4981 2.84222,-1.71451c2.25824,-1.258 4.58244,-2.37093 6.91852,-3.47435c3.77684,-1.69115 7.65817,-3.19101 11.69228,-4.14888c2.6341,-0.62545 4.43897,-0.85306 7.1022,-1.26695c4.3356,-0.57654 8.72546,-0.93418 13.09677,-0.56501c2.41151,0.20366 3.40448,0.45848 5.72418,0.91083c0.75733,0.20771 1.522,0.39029 2.27199,0.62313c0.64584,0.20051 1.32824,0.33604 1.91278,0.67609c16.61922,9.6682 33.26172,19.30298 49.6668,29.33024c0.48973,0.29933 0.57806,0.99472 0.80722,1.52095c0.54733,1.25683 0.57148,1.77693 0.82558,3.10473c0.2281,2.63037 -0.10984,5.29176 -1.06099,7.76045c-0.19309,0.50117 -0.43085,0.98397 -0.64628,1.47595c-2.20858,4.63203 -5.88099,8.25505 -9.45848,11.83898c-5.44773,5.2076 -11.27019,10.00053 -17.10864,14.75853c-5.47737,4.4549 -11.06444,8.77188 -16.5053,13.27157c-4.63759,3.895 -9.06707,8.02982 -13.34752,12.31201c-1.72969,1.83141 -3.35195,3.7694 -4.78296,5.84459c-0.74391,1.07878 -1.34731,2.04077 -1.888,3.22704c-0.19688,0.43195 -0.33945,0.88664 -0.50917,1.32996c-0.12982,0.78053 -0.46734,1.86707 0.04534,2.61209c0.10867,0.15791 0.29143,0.25575 0.46325,0.34074c0.17988,0.08898 0.37584,0.17709 0.5765,0.17359c0.27266,-0.00478 0.52925,-0.13175 0.79387,-0.19763c-15.82494,-9.46676 -31.56822,-19.07139 -47.47482,-28.40029c-0.29084,-0.17057 0.23933,0.685 0.52451,0.86488c0.46281,0.29193 1.03139,0.40505 1.57582,0.45995c0.81163,0.08184 1.63255,-0.00222 2.44663,-0.05435c2.03137,-0.13009 4.23888,-0.45979 6.24816,-0.72595c6.24177,-1.07354 12.48474,-2.45731 18.43479,-4.66869c1.20178,-0.44665 2.37763,-0.96021 3.56644,-1.44031c7.88112,-3.52826 15.33847,-7.9128 22.79917,-12.23799c13.96802,-8.23487 28.10779,-16.17097 42.38535,-23.85518c7.62938,-4.01792 15.34732,-7.90145 23.3612,-11.1021c3.65916,-1.46143 4.93651,-1.85619 8.51277,-3.08515c3.77734,-1.2292 7.61836,-2.26123 11.48028,-3.18797c10.33394,5.98796 46.49336,10.80528 49.77936,30.43662c0.13226,0.7902 0.27653,1.58455 0.29373,2.38555c0.07272,3.38223 -0.67147,6.70892 -1.36873,9.99097c-0.33489,1.10994 -0.59606,2.24485 -1.00467,3.32982c-2.04148,5.42065 -5.36372,10.16787 -9.00894,14.62536c-5.64807,6.90666 -8.22032,9.14554 -14.74922,15.71769c-3.14718,2.91792 -6.25051,5.88387 -9.44156,8.75376c-5.97073,5.36981 -13.4169,11.66975 -19.60873,16.8337c-7.53586,6.28488 -15.18021,12.43212 -22.86022,18.53895c-9.52329,7.45521 -19.13202,14.80037 -28.61955,22.30128c-3.54454,2.82995 -7.07512,5.69827 -10.15564,9.03785c-1.25052,1.3498 -2.07058,2.96028 -2.44859,4.75077c-0.01537,0.16233 -0.05662,0.32427 -0.04609,0.48699c0.04706,0.72728 0.81869,0.1534 1.16652,0.1679c0.28729,0.012 0.54352,0.18812 0.81768,0.27482c0.3843,0.12149 0.77166,0.23308 1.15749,0.34962c19.21522,4.19531 -0.98259,-0.03832 -44.75743,-26.42022c-1.0527,-0.63443 2.34802,0.76037 3.56181,0.95374c1.61018,0.25653 3.24561,0.36192 4.87584,0.39052c5.16364,0.0907 7.44026,-0.35687 12.63265,-0.95929c2.39529,-0.4879 4.81685,-0.86104 7.18587,-1.46371c5.31551,-1.35226 10.64986,-3.27154 15.75281,-5.259c5.33176,-2.07658 9.49402,-3.92797 14.65499,-6.42351c2.52156,-1.21928 5.00382,-2.51821 7.50574,-3.77731c9.76698,-5.04936 19.36133,-10.42164 29.0981,-15.52795c2.26762,-1.15689 4.52088,-2.35704 6.86788,-3.34946c0.4316,-0.1825 1.55571,-0.60796 2.02641,-0.78776c0.76107,-0.24238 1.49746,-0.55577 2.24913,-0.82143c0.19605,-0.06929 0.40573,-0.09778 0.59868,-0.17528c0.25413,-0.10209 0.48815,-0.2489 0.73775,-0.36162c0.25275,-0.11415 0.51238,-0.21242 0.76858,-0.31863c68.85131,39.8686 44.84907,9.69564 49.13432,29.22608c0.21811,0.99408 0.39682,1.96728 0.37902,2.99466c-0.00783,0.45315 -0.06933,0.90379 -0.10403,1.35569c-0.36699,2.77657 -1.00998,5.54208 -1.9687,8.17769c-0.28563,0.78521 -0.61455,1.55398 -0.92183,2.33097c-2.65734,6.68976 -6.41152,12.85214 -10.09096,19.01196c-3.48848,5.79109 -7.102,11.50874 -10.46975,17.37168c-1.23427,2.2304 -2.46196,4.52807 -3.04913,7.03033c-0.07902,0.33674 -0.12483,0.68042 -0.18723,1.02064c-0.10098,0.54299 -0.21054,2.00145 0.19163,2.48479c0.16862,0.20266 0.45935,0.25892 0.69176,0.38336c1.06383,0.56962 0.63301,0.3685 1.84159,0.76262c19.34244,2.17109 1.78515,0.36117 -46.25891,-27.34015c-0.37217,-0.21458 0.67602,0.54181 1.06239,0.72962c1.44419,0.70202 2.87846,0.53233 4.41135,0.4082c3.47874,-0.75161 6.69755,-2.31728 9.785,-4.04204c2.86233,-1.78971 5.69352,-3.62244 8.65073,-5.2541c1.46293,-0.76179 0.75814,-0.40806 2.1117,-1.06647v0l47.23496,31.35197c-1.25211,0.51628 -0.60245,0.244 -1.94819,0.81871c-2.95434,1.40602 -5.76711,3.07967 -8.45256,4.94999c-3.39474,2.16061 -6.95504,4.0346 -10.7286,5.45343c-0.70412,0.26297 -1.39488,0.56493 -2.11236,0.78892c-0.93977,0.29339 -2.75199,0.64925 -3.73366,0.78767c-0.58579,0.0826 -1.24679,0.46521 -1.76552,0.1808c-49.19256,-26.97182 -40.04038,-12.07299 -50.53809,-29.69152c-0.46053,-1.14281 -0.75011,-1.6456 -0.89337,-2.89911c-0.21852,-1.91215 0.13317,-3.85177 0.54637,-5.70837c0.35005,-1.27219 0.38934,-1.51296 0.84525,-2.76693c0.84898,-2.33507 1.96223,-4.56203 3.19128,-6.71825c3.38449,-5.89064 7.00871,-11.63947 10.51829,-17.45564c3.51341,-5.87919 7.12338,-11.75302 9.60841,-18.16225c0.61132,-1.6544 1.19246,-3.27557 1.53328,-5.01037c0.137,-0.69715 0.2811,-1.53924 0.2181,-2.26574c-0.02183,-0.25191 -0.1122,-0.49309 -0.1683,-0.73964c-0.39618,-0.51009 -0.60414,-0.77743 -1.23381,-0.99162c-0.16562,-0.0563 -0.33133,-0.1293 -0.50601,-0.1393c-0.19186,-0.0106 -0.7368,-0.0174 -0.57095,0.0796c15.99757,9.36034 32.11468,18.51486 48.17202,27.77229c-0.0012,-0.13109 0.02052,-1.01606 -0.084,-1.19226c-0.06577,-0.11088 -0.2295,-0.11758 -0.34216,-0.18028c-0.12305,-0.06844 -0.22787,-0.18015 -0.36481,-0.21295c-0.18998,-0.0455 -1.04981,0.0343 -1.19195,0.0447c-2.93733,0.55297 -5.64382,1.84553 -8.27922,3.21872c-9.78069,5.05553 -19.38156,10.44552 -29.12579,15.57014c-5.51589,2.84343 -9.4656,4.9649 -15.10139,7.53503c-4.30137,1.96158 -11.00773,4.70233 -15.39763,6.30444c-2.71195,0.98973 -5.43295,1.96419 -8.20062,2.78533c-2.45859,0.72945 -4.97648,1.24163 -7.46472,1.86245c-5.34069,0.85351 -7.84077,1.38866 -13.18403,1.72688c-1.74156,0.1103 -3.48924,0.0964 -5.23428,0.0944c-1.40295,-0.00182 -2.95978,0.53482 -4.20749,-0.10664c-48.21924,-24.78968 -38.19775,-14.0941 -52.50038,-29.78059c-0.48188,-0.88211 -1.00782,-1.60905 -1.10618,-2.64222c-0.13987,-1.46903 0.37139,-2.9438 0.71877,-4.34475c0.83069,-2.52481 1.99939,-4.93159 3.72632,-6.97513c0.37728,-0.43594 0.7431,-0.88208 1.13184,-1.30783c2.8871,-3.16195 6.24444,-5.84775 9.53834,-8.56425c9.4709,-7.52007 19.07243,-14.87247 28.61741,-22.29787c7.65272,-6.05927 15.2645,-12.16499 22.77422,-18.40165c6.01033,-4.99148 13.66916,-11.43913 19.47134,-16.61264c3.14909,-2.80789 6.2153,-5.70738 9.32294,-8.56108c6.44569,-6.39556 8.77051,-8.36979 14.345,-15.04777c3.22785,-3.8668 6.30613,-7.989 7.96979,-12.79978c0.3242,-0.93748 0.50706,-1.91802 0.76058,-2.87703c0.35688,-2.22089 1.13564,-5.12185 0.0133,-7.27654c-0.20727,-0.39791 -0.54501,-0.74155 -0.92848,-0.97445c-0.31326,-0.19026 -1.38958,-0.42535 -1.0728,-0.24101c15.88884,9.24564 31.88817,18.30008 47.83226,27.45012c-0.1133,-0.35357 -0.1371,-0.74971 -0.33989,-1.06071c-0.68959,-1.05754 -2.57155,-0.54021 -3.46999,-0.3589c-1.71122,0.34533 -3.63868,0.91094 -5.29554,1.36465c-1.25883,0.3924 -2.52578,0.75967 -3.7765,1.17722c-2.84429,0.94955 -6.96838,2.46096 -9.67247,3.59601c-6.096,2.5588 -11.99537,5.57428 -17.87408,8.58742c-14.25085,7.60867 -28.35898,15.48168 -42.27584,23.68707c-7.61373,4.45626 -15.23213,8.93379 -23.16825,12.79948c-1.25515,0.57905 -2.49249,1.19839 -3.76545,1.73716c-6.11129,2.58654 -12.60373,4.13787 -19.05954,5.57517c-1.12384,0.19405 -2.24495,0.40471 -3.37153,0.58216c-1.03498,0.16302 -4.63993,0.62976 -5.78058,0.83859c-0.77064,0.1411 -1.53407,0.32091 -2.29439,0.50987c-0.52081,0.12944 -1.0809,0.71039 -1.54727,0.44488c-16.50233,-9.39505 -32.61788,-19.45376 -48.92683,-29.18064c-0.09226,-0.78814 -0.22207,-1.70821 -0.22937,-2.5057c-0.01903,-2.07647 0.3999,-4.12606 1.11133,-6.07062c0.73456,-1.70595 0.83904,-2.08415 1.80785,-3.74183c1.81241,-3.10109 4.11513,-5.89073 6.49057,-8.56971c4.35731,-4.45256 8.90815,-8.71385 13.63361,-12.77445c5.4228,-4.55936 11.03186,-8.88519 16.54458,-13.3343c5.7196,-4.62806 11.42095,-9.28825 16.81932,-14.29217c2.13998,-2.07899 2.65578,-2.51878 4.62536,-4.65987c1.4605,-1.58768 2.76932,-3.24559 3.68018,-5.21284c0.11169,-0.30414 0.24631,-0.60081 0.33508,-0.91241c0.31982,-1.12261 0.35792,-2.4617 -0.18606,-3.5241c-0.1374,-0.26834 -0.33148,-0.50364 -0.49722,-0.75546c-0.66534,-0.67909 -0.7434,-0.83692 -1.59201,-1.35737c-0.37759,-0.23158 -1.55834,-0.84246 -1.17557,-0.61956c15.67625,9.12905 31.30878,18.33425 47.05701,27.33857c0.55508,0.31737 -0.92359,-0.89183 -1.4464,-1.25994c-0.59855,-0.42143 -1.26805,-0.73179 -1.90208,-1.09768c-0.78612,-0.31786 -1.5525,-0.68972 -2.35834,-0.95359c-1.37673,-0.45081 -4.39015,-1.12253 -5.7914,-1.30463c-3.07116,-0.39913 -6.19469,-0.21665 -9.26795,0.01176c-3.16545,0.34504 -3.65205,0.36219 -6.81146,0.85155c-1.05885,0.16401 -2.12373,0.30303 -3.16895,0.53875c-0.8838,0.19932 -1.74433,0.49164 -2.60837,0.76418c-2.2053,0.69562 -3.09333,1.05937 -5.25052,1.86581c-2.25165,1.00182 -4.49048,2.01196 -6.68944,3.12594c-0.43919,0.22249 -2.06764,1.05588 -2.64341,1.40755c-0.23077,0.14095 -0.44368,0.30923 -0.66552,0.46385z" fill="#ffffff" stroke="#000000" stroke-width="0" stroke-linecap="round" stroke-linejoin="round"/><g data-paper-data="{&quot;isPaintingLayer&quot;:true}" stroke-linecap="butt" stroke-linejoin="miter"><g fill="none" stroke="none" stroke-width="1" font-family="sans-serif" font-weight="normal" font-size="12" text-anchor="start"><g/><g><g/><g><g/><g/><g/></g></g></g><g stroke-width="0"><path d="M271.34766,83.26855h5.01562l13.20508,38.72852c5.19324,1.65714 10.09151,3.97671 14.59375,6.85937l-19.86914,30.44922c-2.07144,-1.43206 -4.36283,-2.56801 -6.8125,-3.34961l-5.47266,-16.05469h-2.07812h-2.55664l-5.45703,16.00586c-1.57544,0.49171 -3.08579,1.12915 -4.51563,1.89844l0.68555,-0.68555l-15.23242,-7.48828l-1.8086,1.80859l-1.46875,1.46875l7.44336,15.14454c-0.72931,1.31415 -1.34778,2.69861 -1.8418,4.14062l-15.36132,5.23633v2.55469v2.08007l14.80859,5.04883c0.49827,1.90852 1.21042,3.72979 2.10742,5.43946l-6.78711,13.80859l1.46875,1.4707l1.8086,1.80664l13.54492,-6.6582c1.76525,1.01453 3.66225,1.8266 5.6582,2.4043l5.01563,14.71289h2.55468h2.08008l5.04688,-14.80274c2.78872,-0.84491 5.3777,-2.14942 7.67968,-3.82422l20.61524,31.59571c-5.08868,3.43366 -10.71219,6.13544 -16.71875,7.95508l-12.17188,35.70898h-5.01562h-6.16602l-12.09765,-35.49023c-4.81499,-1.39363 -9.38999,-3.35337 -13.64844,-5.80079l-32.67969,16.0625l-4.35937,-4.35937l-3.54688,-3.54688l16.375,-33.31054c-2.16389,-4.12435 -3.88003,-8.52094 -5.08203,-13.125l-35.72461,-12.17969v-5.01367v-6.16602l37.05664,-12.63281c1.19175,-3.47866 2.68203,-6.81805 4.44141,-9.98828l-17.95508,-36.53125l3.54687,-3.54688l4.35938,-4.35937l36.74609,18.0625l-1.65625,1.65625c3.45056,-1.85661 7.0964,-3.39751 10.89844,-4.58399l13.16406,-38.60937z" fill="url(#color-1)" stroke="#000000"/><path d="M259.98938,179.99999c0,-5.34469 4.33273,-9.67742 9.67742,-9.67742c5.34469,0 9.67741,4.33273 9.67741,9.67742c0,5.34469 -4.33273,9.67742 -9.67741,9.67742c-5.34469,0 -9.67742,-4.33273 -9.67742,-9.67742z" fill="url(#color-2)" stroke="none"/></g></g></g></g></svg>